<svg width="22px" height="11px" viewBox="0 0 22 11" version="1.1" xmlns="http://www.w3.org/2000/svg" xmlns:xlink="http://www.w3.org/1999/xlink" xmlns:sketch="http://www.bohemiancoding.com/sketch/ns">
  <path d="M4.79882812,7.71679688 L1.6953125,7.71679688 L1.05273438,10 L0.13671875,10 L3.0078125,0.197265625 L3.47265625,0.197265625 L6.35742188,10 L5.44824219,10 L4.79882812,7.71679688 Z M1.93457031,6.87597656 L4.56640625,6.87597656 L3.27441406,2.35742188 L3.24707031,1.99511719 L3.21972656,2.35742188 L1.93457031,6.87597656 Z M12.0107422,8.07910156 C12.0107422,8.36165506 11.9571945,8.62825396 11.8500977,8.87890625 C11.7430008,9.12955854 11.5960296,9.34830636 11.4091797,9.53515625 C11.2223298,9.72200614 11.003582,9.86897733 10.7529297,9.97607422 C10.5022774,10.0831711 10.2356785,10.1367188 9.953125,10.1367188 L9.39257812,10.1367188 C9.11002463,10.1367188 8.84342573,10.0831711 8.59277344,9.97607422 C8.34212114,9.86897733 8.12337333,9.72200614 7.93652344,9.53515625 C7.74967354,9.34830636 7.60270236,9.12955854 7.49560547,8.87890625 C7.38850858,8.62825396 7.33496094,8.36165506 7.33496094,8.07910156 L7.33496094,0.197265625 L8.17578125,0.197265625 L8.17578125,3.58789062 C8.36718846,3.3600249 8.59732938,3.1822923 8.86621094,3.0546875 C9.13509249,2.9270827 9.42675624,2.86328125 9.74121094,2.86328125 L9.953125,2.86328125 C10.2356785,2.86328125 10.5022774,2.91682889 10.7529297,3.02392578 C11.003582,3.13102267 11.2223298,3.27799386 11.4091797,3.46484375 C11.5960296,3.65169364 11.7430008,3.87044146 11.8500977,4.12109375 C11.9571945,4.37174604 12.0107422,4.63834494 12.0107422,4.92089844 L12.0107422,8.07910156 Z M11.1699219,4.87304688 C11.1699219,4.70442624 11.1380212,4.54606194 11.0742188,4.39794922 C11.0104163,4.2498365 10.9238287,4.1210943 10.8144531,4.01171875 C10.7050776,3.9023432 10.5763354,3.81575553 10.4282227,3.75195312 C10.2801099,3.68815072 10.1217456,3.65625 9.953125,3.65625 L9.39257812,3.65625 C9.22395749,3.65625 9.06559319,3.68815072 8.91748047,3.75195312 C8.76936775,3.81575553 8.64062555,3.9023432 8.53125,4.01171875 C8.42187445,4.1210943 8.33528678,4.2498365 8.27148438,4.39794922 C8.20768197,4.54606194 8.17578125,4.70442624 8.17578125,4.87304688 L8.17578125,8.12695312 C8.17578125,8.29557376 8.20768197,8.45393806 8.27148438,8.60205078 C8.33528678,8.7501635 8.42187445,8.8789057 8.53125,8.98828125 C8.64062555,9.0976568 8.76936775,9.18424447 8.91748047,9.24804688 C9.06559319,9.31184928 9.22395749,9.34375 9.39257812,9.34375 L9.953125,9.34375 C10.1217456,9.34375 10.2801099,9.31184928 10.4282227,9.24804688 C10.5763354,9.18424447 10.7050776,9.0976568 10.8144531,8.98828125 C10.9238287,8.8789057 11.0104163,8.7501635 11.0742188,8.60205078 C11.1380212,8.45393806 11.1699219,8.29557376 11.1699219,8.12695312 L11.1699219,4.87304688 Z M18.3681641,8.07910156 C18.3681641,8.36165506 18.3146164,8.62825396 18.2075195,8.87890625 C18.1004226,9.12955854 17.9534515,9.34830636 17.7666016,9.53515625 C17.5797517,9.72200614 17.3610039,9.86897733 17.1103516,9.97607422 C16.8596993,10.0831711 16.5931004,10.1367188 16.3105469,10.1367188 L15.75,10.1367188 C15.4674465,10.1367188 15.2008476,10.0831711 14.9501953,9.97607422 C14.699543,9.86897733 14.4807952,9.72200614 14.2939453,9.53515625 C14.1070954,9.34830636 13.9601242,9.12955854 13.8530273,8.87890625 C13.7459305,8.62825396 13.6923828,8.36165506 13.6923828,8.07910156 L13.6923828,4.92089844 C13.6923828,4.63834494 13.7459305,4.37174604 13.8530273,4.12109375 C13.9601242,3.87044146 14.1070954,3.65169364 14.2939453,3.46484375 C14.4807952,3.27799386 14.699543,3.13102267 14.9501953,3.02392578 C15.2008476,2.91682889 15.4674465,2.86328125 15.75,2.86328125 L16.3105469,2.86328125 C16.5931004,2.86328125 16.8596993,2.91682889 17.1103516,3.02392578 C17.3610039,3.13102267 17.5797517,3.27799386 17.7666016,3.46484375 C17.9534515,3.65169364 18.1004226,3.87044146 18.2075195,4.12109375 C18.3146164,4.37174604 18.3681641,4.63834494 18.3681641,4.92089844 L18.3681641,6.56835938 L14.5332031,6.56835938 L14.5332031,8.12695312 C14.5332031,8.29557376 14.5651038,8.45393806 14.6289062,8.60205078 C14.6927087,8.7501635 14.7792963,8.8789057 14.8886719,8.98828125 C14.9980474,9.0976568 15.1267896,9.18424447 15.2749023,9.24804688 C15.4230151,9.31184928 15.5813794,9.34375 15.75,9.34375 L16.3105469,9.34375 C16.4791675,9.34375 16.6375318,9.31184928 16.7856445,9.24804688 C16.9337573,9.18424447 17.0624995,9.0976568 17.171875,8.98828125 C17.2812505,8.8789057 17.3678382,8.7501635 17.4316406,8.60205078 C17.495443,8.45393806 17.5273438,8.29557376 17.5273438,8.12695312 L17.5273438,7.66210938 L18.3681641,7.79882812 L18.3681641,8.07910156 Z M17.5273438,4.87304688 C17.5273438,4.70442624 17.495443,4.54606194 17.4316406,4.39794922 C17.3678382,4.2498365 17.2812505,4.1210943 17.171875,4.01171875 C17.0624995,3.9023432 16.9337573,3.81575553 16.7856445,3.75195312 C16.6375318,3.68815072 16.4791675,3.65625 16.3105469,3.65625 L15.75,3.65625 C15.5813794,3.65625 15.4230151,3.68815072 15.2749023,3.75195312 C15.1267896,3.81575553 14.9980474,3.9023432 14.8886719,4.01171875 C14.7792963,4.1210943 14.6927087,4.2498365 14.6289062,4.39794922 C14.5651038,4.54606194 14.5332031,4.70442624 14.5332031,4.87304688 L14.5332031,5.91210938 L17.5273438,5.91210938 L17.5273438,4.87304688 Z M20.3300781,10 L20.3300781,0.197265625 L21.1708984,0.197265625 L21.1708984,10 L20.3300781,10 Z" id="Abel" fill="#000000" sketch:type="MSShapeGroup"></path>
</svg>
