<svg width="33px" height="12px" viewBox="0 0 33 12" version="1.1" xmlns="http://www.w3.org/2000/svg" xmlns:xlink="http://www.w3.org/1999/xlink" xmlns:sketch="http://www.bohemiancoding.com/sketch/ns">
  <path d="M7.109375,9.82421875 L7.97070312,9.82421875 L7.15039062,7.47265625 L3.16503906,7.47265625 L2.36523438,9.82421875 L3.43164062,9.82421875 L3.43164062,11 L0.068359375,11 L0.068359375,9.82421875 L0.970703125,9.82421875 L4.19726562,0.63671875 L6.21386719,0.63671875 L9.43359375,9.82421875 L10.4726562,9.82421875 L10.4726562,11 L7.109375,11 L7.109375,9.82421875 Z M3.5546875,6.33789062 L6.75390625,6.33789062 L5.140625,1.703125 L3.5546875,6.33789062 Z M16.3173828,5.41503906 L15.0185547,5.41503906 L15.0185547,4.97753906 C14.8681633,4.97753906 14.7143563,5.00602185 14.5571289,5.06298828 C14.3999016,5.11995471 14.2529304,5.20654239 14.1162109,5.32275391 C13.9794915,5.43896542 13.8598638,5.58707592 13.7573242,5.76708984 C13.6547846,5.94710376 13.5807294,6.16015502 13.5351562,6.40625 L13.5351562,9.82421875 L14.7382812,9.82421875 L14.7382812,11 L11.2246094,11 L11.2246094,9.82421875 L12.2021484,9.82421875 L12.2089844,5.09375 L11.2246094,5.09375 L11.2246094,3.91796875 L13.4873047,3.91796875 L13.4873047,4.89550781 C13.5693363,4.74967375 13.6616206,4.61409568 13.7641602,4.48876953 C13.8666997,4.36344338 13.9806309,4.25406948 14.105957,4.16064453 C14.2312832,4.06721958 14.3702792,3.99430365 14.5229492,3.94189453 C14.6756193,3.88948542 14.8408194,3.86328125 15.0185547,3.86328125 L15.6884766,3.86328125 C15.898113,3.86328125 16.1077463,3.8678385 16.3173828,3.87695313 L16.3173828,5.41503906 Z M17.2470703,3.91796875 L19.6943359,3.91796875 L19.6943359,5.09375 L19.03125,5.09375 L20.78125,9.97460938 L22.4902344,5.09375 L22.0595703,5.09375 L22.0595703,3.91796875 L24.3017578,3.91796875 L24.3017578,5.09375 L23.6933594,5.09375 L21.3759766,11.109375 L20.1181641,11.109375 L17.8076172,5.09375 L17.2470703,5.09375 L17.2470703,3.91796875 Z M25.0810547,7.45898438 C25.085612,6.8984347 25.1756176,6.38802313 25.3510742,5.92773438 C25.5265308,5.46744562 25.7714828,5.07210452 26.0859375,4.74169922 C26.4003922,4.41129392 26.7740864,4.15722745 27.2070312,3.97949219 C27.6399761,3.80175692 28.1162083,3.71289062 28.6357422,3.71289062 C29.1598333,3.71289062 29.6394835,3.80175692 30.074707,3.97949219 C30.5099306,4.15722745 30.8824854,4.4090153 31.1923828,4.73486328 C31.5022802,5.06071126 31.7438142,5.45377374 31.9169922,5.9140625 C32.0901701,6.37435126 32.1767578,6.88476282 32.1767578,7.4453125 C32.1767578,7.99674755 32.0901701,8.50374118 31.9169922,8.96630859 C31.7438142,9.42887601 31.5022802,9.82649573 31.1923828,10.1591797 C30.8824854,10.4918636 30.5099306,10.7504874 30.074707,10.9350586 C29.6394835,11.1196298 29.1598333,11.2119141 28.6357422,11.2119141 C28.1025364,11.2119141 27.6194683,11.1207691 27.1865234,10.9384766 C26.7535786,10.756184 26.382163,10.4998389 26.0722656,10.1694336 C25.7623682,9.8390283 25.5208342,9.4436872 25.3476562,8.98339844 C25.1744783,8.52310968 25.085612,8.01497674 25.0810547,7.45898438 L25.0810547,7.45898438 Z M26.4277344,7.45898438 C26.4277344,7.86458536 26.4858393,8.23144367 26.6020508,8.55957031 C26.7182623,8.88769695 26.8777659,9.16682828 27.0805664,9.39697266 C27.2833669,9.62711704 27.5180651,9.80484963 27.784668,9.93017578 C28.0512709,10.0555019 28.3349594,10.1181641 28.6357422,10.1181641 C28.9501969,10.1181641 29.2429999,10.0566412 29.5141602,9.93359375 C29.7853204,9.81054626 30.0211579,9.63395297 30.2216797,9.40380859 C30.4222015,9.17366421 30.5794265,8.89453289 30.6933594,8.56640625 C30.8072922,8.23827961 30.8642578,7.86914268 30.8642578,7.45898438 C30.8642578,7.03059682 30.8072922,6.65006677 30.6933594,6.31738281 C30.5794265,5.98469886 30.4233408,5.70670685 30.2250977,5.48339844 C30.0268545,5.26009003 29.791017,5.09147192 29.5175781,4.97753906 C29.2441393,4.8636062 28.9501969,4.80664062 28.6357422,4.80664062 C28.3349594,4.80664062 28.0512709,4.8636062 27.784668,4.97753906 C27.5180651,5.09147192 27.2833669,5.26009003 27.0805664,5.48339844 C26.8777659,5.70670685 26.7182623,5.98469886 26.6020508,6.31738281 C26.4858393,6.65006677 26.4277344,7.03059682 26.4277344,7.45898438 L26.4277344,7.45898438 Z" id="Arvo" fill="#000000" sketch:type="MSShapeGroup"></path>
</svg>
