<svg width="39px" height="12px" viewBox="0 0 39 12" version="1.1" xmlns="http://www.w3.org/2000/svg" xmlns:xlink="http://www.w3.org/1999/xlink" xmlns:sketch="http://www.bohemiancoding.com/sketch/ns">
  <path d="M0.56,11 L4.55,11 C6.86,11 8.12,10.16 8.12,8.2 C8.12,7.08 7.42,6.254 5.95,5.918 C7.126,5.624 7.77,4.91 7.77,3.65 C7.77,1.97 6.51,1.2 4.76,1.2 L3.15,1.2 L0.56,1.27 L0.56,2.04 L1.75,2.32 L1.75,9.88 L0.56,10.16 L0.56,11 Z M3.15,6.45 L4.2,6.45 C5.74,6.45 6.65,6.87 6.65,8.27 C6.65,9.32 5.95,9.88 4.62,9.88 L3.15,9.88 L3.15,6.45 Z M3.15,2.32 L4.69,2.32 C5.6,2.32 6.3,2.81 6.3,3.79 C6.3,4.91 5.46,5.4 4.2,5.4 L3.15,5.4 L3.15,2.32 Z M10.29,1.27 C10.29,1.9 10.64,2.25 11.2,2.25 C11.62,2.25 12.11,1.9 12.11,1.27 C12.11,0.57 11.76,0.29 11.2,0.29 C10.71,0.29 10.29,0.64 10.29,1.27 L10.29,1.27 Z M11.97,3.58 L9.38,3.65 L9.38,4.42 L10.57,4.7 L10.57,9.88 L9.38,10.23 L9.38,11 L13.02,11 L13.02,10.23 L11.97,9.88 L11.97,3.58 Z M16.59,1.606 L15.19,1.886 L15.19,3.65 L13.79,3.79 L13.79,4.7 L15.19,4.7 L15.19,9.11 C15.19,10.678 15.96,11.14 16.8,11.14 C17.5,11.14 18.13,10.902 18.76,10.44 L18.382,9.698 C18.018,9.894 17.626,10.048 17.29,10.048 C16.898,10.048 16.59,9.838 16.59,9.194 L16.59,4.7 L18.62,4.7 L18.62,3.65 L16.59,3.65 L16.59,1.606 Z M22.12,1.606 L20.72,1.886 L20.72,3.65 L19.32,3.79 L19.32,4.7 L20.72,4.7 L20.72,9.11 C20.72,10.678 21.49,11.14 22.33,11.14 C23.03,11.14 23.66,10.902 24.29,10.44 L23.912,9.698 C23.548,9.894 23.156,10.048 22.82,10.048 C22.428,10.048 22.12,9.838 22.12,9.194 L22.12,4.7 L24.15,4.7 L24.15,3.65 L22.12,3.65 L22.12,1.606 Z M31.43,7.472 C31.43,7.472 31.5,7.08 31.5,6.73 C31.5,4.63 30.59,3.44 28.56,3.44 C26.53,3.44 25.13,5.12 25.13,7.36 C25.13,9.67 26.25,11.14 28.49,11.14 C30.17,11.14 31.472,9.978 31.472,9.978 L30.982,9.25 C30.982,9.25 30.03,10.02 28.63,10.02 C27.426,10.02 26.6,9.04 26.6,7.5 L31.43,7.472 Z M26.656,6.45 C26.74,5.4 27.37,4.532 28.49,4.532 C29.61,4.532 30.016,5.4 30.016,6.45 L26.656,6.45 Z M34.86,3.58 L32.55,3.65 L32.55,4.42 L33.74,4.7 L33.74,9.88 L32.55,10.23 L32.55,11 L36.54,11 L36.54,10.23 L35.14,9.88 L35.14,5.722 C35.448,5.316 36.12,4.63 37.17,4.63 L37.38,5.68 L38.29,5.68 L38.36,3.65 C38.36,3.65 37.8,3.44 37.1,3.44 C36.148,3.44 35.336,4.21 34.986,4.602 L34.86,3.58 Z" id="Bitter" fill="#000000" sketch:type="MSShapeGroup"></path>
</svg>
