<svg width="27px" height="12px" viewBox="0 0 27 12" version="1.1" xmlns="http://www.w3.org/2000/svg" xmlns:xlink="http://www.w3.org/1999/xlink" xmlns:sketch="http://www.bohemiancoding.com/sketch/ns">
  <path d="M0.064,10.65 L0.064,1.102 C0.064,1.0086662 0.10366627,0.92933366 0.183,0.864 C0.26233373,0.79866634 0.36266606,0.766 0.484,0.766 L2.962,0.766 C3.8486711,0.766 4.55799734,1.00633093 5.09,1.487 C5.62200266,1.96766907 5.888,2.7213282 5.888,3.748 L5.888,8.004 C5.888,9.04000518 5.62200266,9.79833093 5.09,10.279 C4.55799734,10.7596691 3.8486711,11 2.962,11 L0.484,11 C0.36266606,11 0.26233373,10.9650003 0.183,10.895 C0.10366627,10.8249996 0.064,10.7433338 0.064,10.65 L0.064,10.65 Z M0.988,10.146 L2.962,10.146 C3.59666984,10.146 4.08899825,9.96633513 4.439,9.607 C4.78900175,9.24766487 4.964,8.71333688 4.964,8.004 L4.964,3.748 C4.964,3.03866312 4.78900175,2.50666844 4.439,2.152 C4.08899825,1.79733156 3.59666984,1.62 2.962,1.62 L0.988,1.62 L0.988,10.146 Z M7.456,8.438 L7.456,6.912 C7.456,6.20266312 7.71733072,5.58900259 8.24,5.071 C8.76266928,4.55299741 9.38332974,4.294 10.102,4.294 C10.8206703,4.294 11.4459973,4.5506641 11.978,5.064 C12.5100027,5.5773359 12.776,6.19332974 12.776,6.912 L12.776,8.438 C12.776,9.1380035 12.5076694,9.75633065 11.971,10.293 C11.4343306,10.8296694 10.8113369,11.098 10.102,11.098 C9.4019965,11.098 8.78600266,10.8296694 8.254,10.293 C7.72199734,9.75633065 7.456,9.1380035 7.456,8.438 L7.456,8.438 Z M8.366,8.438 C8.366,8.91400238 8.53633163,9.33633149 8.877,9.705 C9.21766837,10.0736685 9.62599762,10.258 10.102,10.258 C10.5873358,10.258 11.0026649,10.0736685 11.348,9.705 C11.6933351,9.33633149 11.866,8.91400238 11.866,8.438 L11.866,6.912 C11.866,6.45466438 11.6910017,6.04400182 11.341,5.68 C10.9909983,5.31599818 10.5780024,5.134 10.102,5.134 C9.62599762,5.134 9.21766837,5.31599818 8.877,5.68 C8.53633163,6.04400182 8.366,6.45466438 8.366,6.912 L8.366,8.438 Z M13.854,10.09 C13.854,9.9966662 13.8866663,9.9033338 13.952,9.81 C14.0173337,9.7166662 14.0919996,9.67 14.176,9.67 C14.2413337,9.67 14.3439993,9.72366613 14.484,9.831 C14.6240007,9.93833387 14.8246654,10.0479994 15.086,10.16 C15.3473346,10.2720006 15.6599982,10.328 16.024,10.328 C16.5186691,10.328 16.8826655,10.2346676 17.116,10.048 C17.3493345,9.8613324 17.466,9.62333478 17.466,9.334 C17.466,8.99799832 17.3470012,8.72966767 17.109,8.529 C16.8709988,8.32833233 16.5840017,8.1813338 16.248,8.088 C15.9119983,7.9946662 15.5736684,7.89200056 15.233,7.78 C14.8923316,7.66799944 14.6030012,7.48366795 14.365,7.227 C14.1269988,6.97033205 14.008,6.62733548 14.008,6.198 C14.008,5.6846641 14.1923315,5.23900189 14.561,4.861 C14.9296685,4.48299811 15.482663,4.294 16.22,4.294 C16.6773356,4.294 17.1043313,4.36633261 17.501,4.511 C17.8976687,4.65566739 18.096,4.81199916 18.096,4.98 C18.096,5.0733338 18.058667,5.17599944 17.984,5.288 C17.909333,5.40000056 17.8206672,5.456 17.718,5.456 C17.6899999,5.456 17.5173349,5.39066732 17.2,5.26 C16.8826651,5.12933268 16.5606683,5.064 16.234,5.064 C15.767331,5.064 15.4173345,5.17599888 15.184,5.4 C14.9506655,5.62400112 14.834,5.8759986 14.834,6.156 C14.834,6.44533478 14.9529988,6.67399916 15.191,6.842 C15.4290012,7.01000084 15.7183316,7.13833289 16.059,7.227 C16.3996684,7.31566711 16.7403316,7.41833275 17.081,7.535 C17.4216684,7.65166725 17.7109988,7.85699853 17.949,8.151 C18.1870012,8.44500147 18.306,8.825331 18.306,9.292 C18.306,9.8520028 18.1076687,10.2929984 17.711,10.615 C17.3143313,10.9370016 16.7613369,11.098 16.052,11.098 C15.4359969,11.098 14.9156688,10.9883344 14.491,10.769 C14.0663312,10.5496656 13.854,10.3233345 13.854,10.09 L13.854,10.09 Z M19.482,1.83 C19.482,1.67133254 19.5426661,1.53600056 19.664,1.424 C19.7853339,1.31199944 19.9346658,1.256 20.112,1.256 C20.2800008,1.256 20.4223327,1.31199944 20.539,1.424 C20.6556673,1.53600056 20.714,1.67133254 20.714,1.83 C20.714,1.98866746 20.6556673,2.12633275 20.539,2.243 C20.4223327,2.35966725 20.2800008,2.418 20.112,2.418 C19.9346658,2.418 19.7853339,2.35966725 19.664,2.243 C19.5426661,2.12633275 19.482,1.98866746 19.482,1.83 L19.482,1.83 Z M19.664,10.636 L19.664,4.714 C19.664,4.6206662 19.7059996,4.54133366 19.79,4.476 C19.8740004,4.41066634 19.9813327,4.378 20.112,4.378 C20.2426673,4.378 20.3523329,4.41066634 20.441,4.476 C20.5296671,4.54133366 20.574,4.6206662 20.574,4.714 L20.574,10.636 C20.574,10.7293338 20.5273338,10.813333 20.434,10.888 C20.3406662,10.962667 20.2333339,11 20.112,11 C19.9906661,11 19.8856671,10.962667 19.797,10.888 C19.7083329,10.813333 19.664,10.7293338 19.664,10.636 L19.664,10.636 Z M21.918,10.09 C21.918,9.9966662 21.9506663,9.9033338 22.016,9.81 C22.0813337,9.7166662 22.1559996,9.67 22.24,9.67 C22.3053337,9.67 22.4079993,9.72366613 22.548,9.831 C22.6880007,9.93833387 22.8886654,10.0479994 23.15,10.16 C23.4113346,10.2720006 23.7239982,10.328 24.088,10.328 C24.5826691,10.328 24.9466655,10.2346676 25.18,10.048 C25.4133345,9.8613324 25.53,9.62333478 25.53,9.334 C25.53,8.99799832 25.4110012,8.72966767 25.173,8.529 C24.9349988,8.32833233 24.6480017,8.1813338 24.312,8.088 C23.9759983,7.9946662 23.6376684,7.89200056 23.297,7.78 C22.9563316,7.66799944 22.6670012,7.48366795 22.429,7.227 C22.1909988,6.97033205 22.072,6.62733548 22.072,6.198 C22.072,5.6846641 22.2563315,5.23900189 22.625,4.861 C22.9936685,4.48299811 23.546663,4.294 24.284,4.294 C24.7413356,4.294 25.1683314,4.36633261 25.565,4.511 C25.9616687,4.65566739 26.16,4.81199916 26.16,4.98 C26.16,5.0733338 26.122667,5.17599944 26.048,5.288 C25.973333,5.40000056 25.8846672,5.456 25.782,5.456 C25.7539999,5.456 25.5813349,5.39066732 25.264,5.26 C24.9466651,5.12933268 24.6246683,5.064 24.298,5.064 C23.831331,5.064 23.4813345,5.17599888 23.248,5.4 C23.0146655,5.62400112 22.898,5.8759986 22.898,6.156 C22.898,6.44533478 23.0169988,6.67399916 23.255,6.842 C23.4930012,7.01000084 23.7823316,7.13833289 24.123,7.227 C24.4636684,7.31566711 24.8043316,7.41833275 25.145,7.535 C25.4856684,7.65166725 25.7749988,7.85699853 26.013,8.151 C26.2510012,8.44500147 26.37,8.825331 26.37,9.292 C26.37,9.8520028 26.1716686,10.2929984 25.775,10.615 C25.3783314,10.9370016 24.8253369,11.098 24.116,11.098 C23.4999969,11.098 22.9796688,10.9883344 22.555,10.769 C22.1303312,10.5496656 21.918,10.3233345 21.918,10.09 L21.918,10.09 Z" id="Dosis" fill="#000000" sketch:type="MSShapeGroup"></path>
</svg>
