<svg width="67px" height="12px" viewBox="0 0 67 12" version="1.1" xmlns="http://www.w3.org/2000/svg" xmlns:xlink="http://www.w3.org/1999/xlink" xmlns:sketch="http://www.bohemiancoding.com/sketch/ns">
  <path d="M7.72265625,5.90722656 C7.72265625,6.75032974 7.61328234,7.48974292 7.39453125,8.12548828 C7.17578016,8.76123365 6.85905155,9.29215282 6.44433594,9.71826172 C6.02962032,10.1443706 5.52034807,10.4645172 4.91650391,10.6787109 C4.31265974,10.8929047 3.62793352,11 2.86230469,11 L0.360351562,11 L0.360351562,1.00585938 L3.14257812,1.00585938 C3.83984724,1.00585938 4.47102582,1.11067604 5.03613281,1.3203125 C5.6012398,1.52994896 6.08202927,1.84098101 6.47851562,2.25341797 C6.87500198,2.66585493 7.18147678,3.1774058 7.39794922,3.78808594 C7.61442166,4.39876607 7.72265625,5.10513922 7.72265625,5.90722656 L7.72265625,5.90722656 Z M6.37597656,5.94824219 C6.37597656,5.28287428 6.300782,4.70752196 6.15039062,4.22216797 C5.99999925,3.73681398 5.78125144,3.33691563 5.49414062,3.02246094 C5.20702981,2.70800624 4.85384324,2.47444738 4.43457031,2.32177734 C4.01529738,2.16910731 3.53906517,2.09277344 3.00585938,2.09277344 L1.63183594,2.09277344 L1.63183594,9.90625 L2.73925781,9.90625 C3.94238883,9.90625 4.8492808,9.57357104 5.45996094,8.90820312 C6.07064107,8.24283521 6.37597656,7.25619144 6.37597656,5.94824219 L6.37597656,5.94824219 Z M13.0136719,3.35742188 C13.145834,3.35742188 13.2939445,3.36311843 13.4580078,3.37451172 C13.6220711,3.385905 13.7633458,3.40299468 13.8818359,3.42578125 L13.7177734,4.57421875 C13.5901686,4.55143218 13.4591478,4.53206388 13.324707,4.51611328 C13.1902663,4.50016268 13.0638027,4.4921875 12.9453125,4.4921875 C12.6582017,4.4921875 12.39616,4.55029239 12.1591797,4.66650391 C11.9221993,4.78271542 11.7182626,4.94905491 11.5473633,5.16552734 C11.376464,5.38199978 11.2443039,5.64176281 11.1508789,5.94482422 C11.057454,6.24788563 11.0107422,6.58398253 11.0107422,6.953125 L11.0107422,11 L9.76660156,11 L9.76660156,3.49414062 L10.7783203,3.49414062 L10.9287109,4.86816406 L10.9833984,4.86816406 C11.0973313,4.67219954 11.2192376,4.48307383 11.3491211,4.30078125 C11.4790046,4.11848867 11.6248364,3.95784575 11.7866211,3.81884766 C11.9484058,3.67984957 12.1295563,3.56819704 12.3300781,3.48388672 C12.5306,3.3995764 12.7584623,3.35742188 13.0136719,3.35742188 L13.0136719,3.35742188 Z M21.4697266,7.23339844 C21.4697266,7.85775052 21.3933927,8.41259523 21.2407227,8.89794922 C21.0880526,9.38330321 20.8693048,9.79117673 20.5844727,10.121582 C20.2996405,10.4519873 19.9544291,10.7037752 19.5488281,10.8769531 C19.1432271,11.0501311 18.6875025,11.1367188 18.1816406,11.1367188 C17.7122372,11.1367188 17.2792989,11.0501311 16.8828125,10.8769531 C16.4863261,10.7037752 16.1433934,10.4519873 15.8540039,10.121582 C15.5646144,9.79117673 15.3390308,9.38330321 15.1772461,8.89794922 C15.0154614,8.41259523 14.9345703,7.85775052 14.9345703,7.23339844 C14.9345703,6.61360367 15.0109042,6.06331621 15.1635742,5.58251953 C15.3162443,5.10172286 15.5338528,4.69612795 15.8164062,4.36572266 C16.0989597,4.03531736 16.4441711,3.78466882 16.8520508,3.61376953 C17.2599304,3.44287024 17.7167943,3.35742188 18.2226562,3.35742188 C18.6920596,3.35742188 19.124998,3.44287024 19.5214844,3.61376953 C19.9179707,3.78466882 20.2609035,4.03531736 20.550293,4.36572266 C20.8396824,4.69612795 21.0652661,5.10172286 21.2270508,5.58251953 C21.3888354,6.06331621 21.4697266,6.61360367 21.4697266,7.23339844 L21.4697266,7.23339844 Z M16.2197266,7.23339844 C16.2197266,8.18587716 16.3758122,8.90250411 16.6879883,9.38330078 C17.0001643,9.86409746 17.5071579,10.1044922 18.2089844,10.1044922 C18.9108108,10.1044922 19.4155258,9.86409746 19.7231445,9.38330078 C20.0307633,8.90250411 20.1845703,8.18587716 20.1845703,7.23339844 C20.1845703,6.28091972 20.0284846,5.56885001 19.7163086,5.09716797 C19.4041326,4.62548592 18.8971389,4.38964844 18.1953125,4.38964844 C17.4934861,4.38964844 16.9887711,4.62548592 16.6811523,5.09716797 C16.3735336,5.56885001 16.2197266,6.28091972 16.2197266,7.23339844 L16.2197266,7.23339844 Z M24.6757812,11 L23.4316406,11 L23.4316406,3.49414062 L24.6757812,3.49414062 L24.6757812,11 Z M23.3359375,1.46386719 C23.3359375,1.19042832 23.4054355,0.992188115 23.5444336,0.869140625 C23.6834317,0.746093135 23.8554677,0.684570312 24.0605469,0.684570312 C24.1608078,0.684570312 24.2553706,0.699381362 24.3442383,0.729003906 C24.4331059,0.75862645 24.5105791,0.805338223 24.5766602,0.869140625 C24.6427412,0.932943027 24.6951495,1.01383415 24.7338867,1.11181641 C24.7726239,1.20979867 24.7919922,1.32714775 24.7919922,1.46386719 C24.7919922,1.72819143 24.7202156,1.92529232 24.5766602,2.05517578 C24.4331048,2.18505924 24.2610687,2.25 24.0605469,2.25 C23.8554677,2.25 23.6834317,2.18619855 23.5444336,2.05859375 C23.4054355,1.93098895 23.3359375,1.73274874 23.3359375,1.46386719 L23.3359375,1.46386719 Z M31.6894531,9.99511719 L31.6347656,9.99511719 C31.5345047,10.1500659 31.4171556,10.2970371 31.2827148,10.4360352 C31.1482741,10.5750332 30.9933277,10.6969396 30.8178711,10.8017578 C30.6424145,10.906576 30.4453136,10.9886065 30.2265625,11.0478516 C30.0078114,11.1070967 29.7617201,11.1367188 29.4882813,11.1367188 C29.064451,11.1367188 28.6770851,11.0546883 28.3261719,10.890625 C27.9752587,10.7265617 27.6744804,10.4816097 27.4238281,10.1557617 C27.1731758,9.82991374 26.9794929,9.42545814 26.8427734,8.94238281 C26.706054,8.45930748 26.6376953,7.89876621 26.6376953,7.26074219 C26.6376953,6.61816085 26.706054,6.05420165 26.8427734,5.56884766 C26.9794929,5.08349367 27.1731758,4.67675945 27.4238281,4.34863281 C27.6744804,4.02050617 27.9752587,3.77327557 28.3261719,3.60693359 C28.6770851,3.44059162 29.064451,3.35742187 29.4882813,3.35742187 C29.7571628,3.35742187 30.0009755,3.38704397 30.2197266,3.44628906 C30.4384777,3.50553415 30.6355785,3.58528596 30.8110352,3.68554688 C30.9864918,3.78580779 31.1425774,3.90201757 31.2792969,4.03417969 C31.4160163,4.16634181 31.5345047,4.30533781 31.6347656,4.45117188 L31.7167969,4.45117188 C31.7031249,4.29622318 31.6894532,4.14811269 31.6757813,4.00683594 C31.6666666,3.88834576 31.6575521,3.76643943 31.6484375,3.64111328 C31.6393229,3.51578713 31.6347656,3.41666703 31.6347656,3.34375 L31.6347656,0.36328125 L32.8789062,0.36328125 L32.8789062,11 L31.8740234,11 L31.6894531,9.99511719 Z M29.7275391,10.1044922 C30.073895,10.1044922 30.366698,10.0520839 30.605957,9.94726562 C30.845216,9.84244739 31.038899,9.68294378 31.1870117,9.46875 C31.3351244,9.25455622 31.4444983,8.98681801 31.5151367,8.66552734 C31.5857751,8.34423667 31.625651,7.96940318 31.6347656,7.54101562 L31.6347656,7.26074219 C31.6347656,6.80045343 31.6040042,6.39144059 31.5424805,6.03369141 C31.4809567,5.67594222 31.3761401,5.37516398 31.2280273,5.13134766 C31.0799146,4.88753133 30.8828137,4.70296287 30.6367188,4.57763672 C30.3906238,4.45231057 30.0830097,4.38964844 29.7138672,4.38964844 C29.0986297,4.38964844 28.6463231,4.63801835 28.3569336,5.13476562 C28.0675441,5.6315129 27.9228516,6.34472191 27.9228516,7.27441406 C27.9228516,8.22689278 28.0675441,8.93668386 28.3569336,9.40380859 C28.6463231,9.87093333 29.103187,10.1044922 29.7275391,10.1044922 L29.7275391,10.1044922 Z M44.3291016,8.32714844 C44.3291016,8.76920794 44.2504891,9.16454904 44.0932617,9.51318359 C43.9360344,9.86181815 43.71159,10.1568998 43.4199219,10.3984375 C43.1282538,10.6399752 42.7727886,10.8234043 42.3535156,10.9487305 C41.9342427,11.0740566 41.4625677,11.1367188 40.9384766,11.1367188 C40.4326147,11.1367188 39.9598004,11.0968428 39.5200195,11.0170898 C39.0802387,10.9373368 38.7122411,10.8199878 38.4160156,10.6650391 L38.4160156,9.44824219 C38.5709643,9.52115922 38.7475576,9.59293584 38.9458008,9.66357422 C39.144044,9.73421259 39.352538,9.79687473 39.5712891,9.8515625 C39.7900402,9.90625027 40.0156238,9.95068342 40.2480469,9.98486328 C40.4804699,10.0190431 40.7106108,10.0361328 40.9384766,10.0361328 C41.6676469,10.0361328 42.2065412,9.89941543 42.5551758,9.62597656 C42.9038103,9.3525377 43.078125,8.96061453 43.078125,8.45019531 C43.078125,8.20410033 43.045085,7.98990977 42.9790039,7.80761719 C42.9129228,7.62532461 42.7967131,7.45784582 42.6303711,7.30517578 C42.4640291,7.15250575 42.2418634,7.00439525 41.9638672,6.86083984 C41.685871,6.71728444 41.3349631,6.56119876 40.9111328,6.39257812 C40.5055318,6.23307212 40.1534846,6.05875746 39.8549805,5.86962891 C39.5564764,5.68050036 39.3103851,5.4674491 39.1166992,5.23046875 C38.9230134,4.9934884 38.7794601,4.72461088 38.6860352,4.42382812 C38.5926102,4.12304537 38.5458984,3.78125191 38.5458984,3.3984375 C38.5458984,2.99739383 38.6188144,2.63965001 38.7646484,2.32519531 C38.9104825,2.01074062 39.1155586,1.74528103 39.3798828,1.52880859 C39.6442071,1.31233616 39.9597963,1.14713599 40.3266602,1.03320312 C40.693524,0.919270264 41.0979796,0.862304688 41.5400391,0.862304688 C42.0823595,0.862304688 42.5699848,0.913573706 43.0029297,1.01611328 C43.4358746,1.11865286 43.8209619,1.24967368 44.1582031,1.40917969 L43.7001953,2.47558594 C43.4039699,2.34342382 43.067873,2.22835335 42.6918945,2.13037109 C42.3159161,2.03238883 41.9274109,1.98339844 41.5263672,1.98339844 C40.9703748,1.98339844 40.5397151,2.11214064 40.234375,2.36962891 C39.9290349,2.62711717 39.7763672,2.97460719 39.7763672,3.41210938 C39.7763672,3.6718763 39.8105465,3.89632067 39.8789062,4.08544922 C39.947266,4.27457777 40.0611971,4.4454745 40.2207031,4.59814453 C40.3802091,4.75081457 40.5909818,4.89436782 40.8530273,5.02880859 C41.1150729,5.16324937 41.4374981,5.30566331 41.8203125,5.45605469 C42.2350281,5.62011801 42.5984685,5.78873611 42.9106445,5.96191406 C43.2228206,6.13509201 43.4837229,6.33105359 43.6933594,6.54980469 C43.9029958,6.76855578 44.0613601,7.02148294 44.168457,7.30859375 C44.2755539,7.59570456 44.3291016,7.93521939 44.3291016,8.32714844 L44.3291016,8.32714844 Z M50.3925781,11 L50.1396484,9.9609375 L50.0849609,9.9609375 C49.9345696,10.1660167 49.7841804,10.3426099 49.6337891,10.4907227 C49.4833977,10.6388354 49.3193368,10.7607417 49.1416016,10.8564453 C48.9638663,10.9521489 48.7656261,11.0227862 48.546875,11.0683594 C48.3281239,11.1139325 48.0751967,11.1367188 47.7880859,11.1367188 C47.4736312,11.1367188 47.1842461,11.0922856 46.9199219,11.003418 C46.6555976,10.9145503 46.426596,10.777833 46.2329102,10.5932617 C46.0392243,10.4086905 45.8876959,10.1762709 45.7783203,9.89599609 C45.6689448,9.61572125 45.6142578,9.2841816 45.6142578,8.90136719 C45.6142578,8.15396762 45.8774388,7.57975461 46.4038086,7.17871094 C46.9301784,6.77766727 47.7311144,6.55891945 48.8066406,6.52246094 L50.0644531,6.47460938 L50.0644531,6.00292969 C50.0644531,5.69758962 50.0314131,5.44238384 49.965332,5.23730469 C49.899251,5.03222554 49.8035488,4.86702537 49.6782227,4.74169922 C49.5528965,4.61637307 49.3979501,4.52636746 49.2133789,4.47167969 C49.0288077,4.41699191 48.818035,4.38964844 48.5810547,4.38964844 C48.2027976,4.38964844 47.8507503,4.44433539 47.5249023,4.55371094 C47.1990544,4.66308648 46.8857437,4.79524662 46.5849609,4.95019531 L46.1474609,4.01367188 C46.4847022,3.8313793 46.860675,3.67643293 47.2753906,3.54882812 C47.6901062,3.42122332 48.1253232,3.35742188 48.5810547,3.35742188 C49.0459008,3.35742188 49.4480777,3.40413365 49.7875977,3.49755859 C50.1271176,3.59098354 50.4073882,3.73909404 50.628418,3.94189453 C50.8494477,4.14469502 51.0146479,4.40331874 51.1240234,4.71777344 C51.233399,5.03222813 51.2880859,5.41275818 51.2880859,5.859375 L51.2880859,11 L50.3925781,11 Z M48.109375,10.1318359 C48.3873712,10.1318359 48.6448556,10.0885421 48.8818359,10.0019531 C49.1188163,9.91536415 49.3238924,9.78434333 49.4970703,9.60888672 C49.6702483,9.43343011 49.8058263,9.21240368 49.9038086,8.94580078 C50.0017909,8.67919789 50.0507812,8.36588722 50.0507812,8.00585938 L50.0507812,7.32910156 L49.0732422,7.37695312 C48.6630839,7.39518238 48.3190118,7.44075484 48.0410156,7.51367188 C47.7630194,7.58658891 47.5408537,7.68798763 47.3745117,7.81787109 C47.2081697,7.94775456 47.088542,8.10497955 47.015625,8.28955078 C46.942708,8.47412202 46.90625,8.68261603 46.90625,8.91503906 C46.90625,9.33431199 47.0167632,9.6419261 47.237793,9.83789062 C47.4588227,10.0338551 47.7493472,10.1318359 48.109375,10.1318359 L48.109375,10.1318359 Z M58.28125,11 L58.28125,6.16699219 C58.28125,5.57454131 58.1616223,5.13020981 57.9223633,4.83398438 C57.6831043,4.53775894 57.3082708,4.38964844 56.7978516,4.38964844 C56.4287091,4.38964844 56.1188164,4.44889264 55.8681641,4.56738281 C55.6175118,4.68587299 55.4158536,4.86132696 55.2631836,5.09375 C55.1105136,5.32617304 55.0011397,5.61100092 54.9350586,5.94824219 C54.8689775,6.28548346 54.8359375,6.67284938 54.8359375,7.11035156 L54.8359375,11 L53.5917969,11 L53.5917969,3.49414062 L54.6035156,3.49414062 L54.78125,4.50585938 L54.8496094,4.50585938 C54.9635422,4.30989485 55.0991203,4.14013744 55.2563477,3.99658203 C55.413575,3.85302663 55.585611,3.73339892 55.7724609,3.63769531 C55.9593108,3.54199171 56.157551,3.47135439 56.3671875,3.42578125 C56.576824,3.38020811 56.7910145,3.35742188 57.0097656,3.35742188 C57.8437542,3.35742188 58.4715148,3.57503038 58.8930664,4.01025391 C59.314618,4.44547744 59.5253906,5.14159678 59.5253906,6.09863281 L59.5253906,11 L58.28125,11 Z M66.3271484,8.94238281 C66.3271484,9.30696797 66.2610684,9.6259752 66.1289062,9.89941406 C65.9967441,10.1728529 65.8064791,10.4018545 65.5581055,10.5864258 C65.3097318,10.770997 65.0100929,10.9088537 64.6591797,11 C64.3082665,11.0911463 63.9140647,11.1367188 63.4765625,11.1367188 C62.9798152,11.1367188 62.5537127,11.0968428 62.1982422,11.0170898 C61.8427717,10.9373368 61.5306003,10.8199878 61.2617188,10.6650391 L61.2617188,9.53027344 C61.4029955,9.60319047 61.5602205,9.67496709 61.7333984,9.74560547 C61.9065764,9.81624384 62.0888662,9.87890598 62.2802734,9.93359375 C62.4716806,9.98828152 62.6687815,10.0327147 62.871582,10.0668945 C63.0743825,10.1010744 63.2760407,10.1181641 63.4765625,10.1181641 C63.7727879,10.1181641 64.0245758,10.0930992 64.2319336,10.0429688 C64.4392914,9.99283829 64.6079095,9.92106167 64.737793,9.82763672 C64.8676764,9.73421177 64.9622393,9.62028062 65.0214844,9.48583984 C65.0807295,9.35139907 65.1103516,9.20214926 65.1103516,9.03808594 C65.1103516,8.89680919 65.0875653,8.7692063 65.0419922,8.65527344 C64.996419,8.54134058 64.9132493,8.42854874 64.7924805,8.31689453 C64.6717116,8.20524033 64.5065115,8.09244849 64.296875,7.97851562 C64.0872385,7.86458276 63.818361,7.73697987 63.4902344,7.59570312 C63.1621077,7.45442638 62.867026,7.31543037 62.6049805,7.17871094 C62.3429349,7.0419915 62.1207691,6.88932376 61.9384766,6.72070312 C61.756184,6.55208249 61.6160487,6.35726022 61.5180664,6.13623047 C61.4200841,5.91520072 61.3710938,5.65201976 61.3710938,5.34667969 C61.3710938,5.02766768 61.4337559,4.74397911 61.559082,4.49560547 C61.6844082,4.24723183 61.8610015,4.03873782 62.0888672,3.87011719 C62.3167329,3.70149655 62.5901677,3.57389366 62.9091797,3.48730469 C63.2281917,3.40071571 63.5836569,3.35742188 63.9755859,3.35742188 C64.4176454,3.35742188 64.822101,3.40527296 65.1889648,3.50097656 C65.5558287,3.59668017 65.9033187,3.72200443 66.2314453,3.87695312 L65.8007812,4.88183594 C65.5045558,4.74967382 65.2003596,4.63460335 64.8881836,4.53662109 C64.5760076,4.43863883 64.2581396,4.38964844 63.9345703,4.38964844 C63.4697242,4.38964844 63.1256522,4.46598231 62.9023438,4.61865234 C62.6790353,4.77132238 62.5673828,4.98893088 62.5673828,5.27148438 C62.5673828,5.43099038 62.593587,5.56998639 62.6459961,5.68847656 C62.6984052,5.80696674 62.7884108,5.91861927 62.9160156,6.0234375 C63.0436204,6.12825573 63.2145172,6.2342117 63.4287109,6.34130859 C63.6429047,6.44840548 63.9095036,6.56803319 64.2285156,6.70019531 C64.5566423,6.83691475 64.8494453,6.97363213 65.1069336,7.11035156 C65.3644219,7.247071 65.584309,7.40087805 65.7666016,7.57177734 C65.9488941,7.74267664 66.0878901,7.93749891 66.1835938,8.15625 C66.2792974,8.37500109 66.3271484,8.63704274 66.3271484,8.94238281 L66.3271484,8.94238281 Z" id="Droid-Sans" fill="#000000" sketch:type="MSShapeGroup"></path>
</svg>