<svg width="62px" height="14px" viewBox="0 0 62 14" version="1.1" xmlns="http://www.w3.org/2000/svg" xmlns:xlink="http://www.w3.org/1999/xlink" xmlns:sketch="http://www.bohemiancoding.com/sketch/ns">
  <path d="M4.998,0.668 C4.816,0.654 4.62,0.64 4.41,0.64 C2.282,0.64 0.252,2.166 0.252,3.944 C0.252,5.162 0.952,5.638 2.072,5.638 C1.736,5.344 1.428,4.98 1.428,3.986 C1.428,2.712 2.212,1.816 3.458,1.466 L3.458,11.322 C3.57,11.308 3.668,11.308 3.78,11.308 C5.586,11.308 6.874,13.506 8.344,13.506 C9.296,13.506 9.884,12.834 9.884,12.064 C9.884,11.938 9.87,11.812 9.842,11.686 C9.464,11.868 9.114,11.966 8.764,11.966 C7.182,11.966 6.188,10.986 4.984,10.72 L4.984,0.71 L4.998,0.668 Z M9.548,3.93 C7.448,3.93 6.818,6.184 6.818,7.822 C6.818,10.23 8.19,11.084 9.436,11.084 C10.948,11.084 11.83,9.698 11.83,7.402 C11.83,7.206 11.816,7.01 11.816,6.828 C12.67,6.688 13.594,6.282 13.958,5.68 L13.748,5.302 C13.286,5.778 12.6,6.142 11.83,6.142 L11.746,6.142 C11.564,4.896 11.018,3.93 9.548,3.93 L9.548,3.93 Z M9.688,10.02 C9.058,10.02 8.33,9.586 8.33,7.766 C8.33,6.394 8.75,4.7 9.912,4.7 C10.332,4.7 10.696,4.924 10.92,5.568 C10.556,5.582 10.36,5.736 10.36,6.17 C10.36,6.646 10.584,6.842 11.116,6.87 C11.13,6.982 11.13,7.094 11.13,7.206 C11.13,8.984 10.668,10.02 9.688,10.02 L9.688,10.02 Z M23.506,8.494 C23.254,8.704 22.946,8.942 22.638,9.152 C22.652,9.068 22.652,8.984 22.652,8.886 C22.652,7.892 22.274,6.688 21.49,3.566 L20.076,3.846 C19.53,5.092 18.774,6.03 17.864,6.142 C17.584,4.434 16.45,3.972 15.596,3.972 C14.994,3.972 14.574,4.196 14.266,4.518 L14.266,1.2 L12.866,1.396 L12.866,8.494 C12.866,10.44 13.706,11.084 14.868,11.084 C16.912,11.084 17.934,9.124 17.934,6.996 L17.934,6.744 C18.858,6.464 19.782,5.694 20.244,4.574 C20.902,7.402 21.168,8.102 21.168,8.886 C21.168,9.74 20.86,10.034 20.188,10.034 C19.432,10.034 19.222,9.656 19.082,8.998 C19.194,9.138 19.292,9.194 19.418,9.194 C19.656,9.194 19.88,9.012 19.88,8.648 C19.88,8.2 19.558,7.976 19.236,7.976 C18.872,7.976 18.396,8.242 18.396,9.068 C18.396,9.88 18.844,11.084 20.468,11.084 C21.056,11.084 21.938,10.916 22.386,10.104 C22.918,9.726 23.548,9.25 24.094,8.494 L23.506,8.494 Z M16.688,7.318 C16.688,8.774 16.156,10.118 15.092,10.118 C14.518,10.118 14.266,9.712 14.266,8.858 L14.266,5.176 C14.518,4.896 14.84,4.7 15.218,4.7 C15.75,4.7 16.156,5.092 16.394,5.68 C16.282,5.778 16.226,5.932 16.226,6.17 C16.226,6.534 16.352,6.744 16.66,6.828 C16.674,6.982 16.688,7.15 16.688,7.318 L16.688,7.318 Z M23.492,2.068 L23.492,4 L23.016,4 L23.016,4.49 L23.492,4.49 L23.492,9.054 C23.492,9.978 23.8,11.084 25.144,11.084 C25.788,11.084 26.712,10.832 27.328,8.494 L26.81,8.494 C26.544,9.516 26.054,10.02 25.55,10.02 C24.92,10.02 24.892,9.194 24.892,8.76 L24.892,4.49 L25.97,4.49 L25.97,4 L24.892,4 L24.892,1.872 L23.492,2.068 Z M31.164,5.75 C31.164,4.266 30.226,3.93 29.302,3.93 C27.286,3.93 26.628,6.282 26.628,7.85 C26.628,10.244 27.874,11.084 29.162,11.084 C30.59,11.084 31.92,9.866 32.396,8.494 L31.948,8.494 C31.458,9.586 30.618,10.02 29.736,10.02 C28.938,10.02 28.266,9.684 28.126,8.2 C30.016,7.99 31.164,7.052 31.164,5.75 L31.164,5.75 Z M28.112,7.654 C28.112,6.282 28.588,4.616 29.568,4.616 C30.016,4.616 30.268,4.91 30.268,5.61 C30.268,6.66 29.428,7.444 28.112,7.654 L28.112,7.654 Z M31.934,4 L31.934,11 L33.334,11 L33.334,5.848 C33.656,5.512 34.062,5.148 34.482,5.148 C34.888,5.148 34.944,5.498 35.266,5.498 C35.49,5.498 35.91,5.33 35.91,4.77 C35.91,4.308 35.616,3.93 34.986,3.93 C34.188,3.93 33.768,4.518 33.334,5.176 L33.334,4 L31.934,4 Z M47.152,2.18 C48.146,2.18 48.636,1.816 48.636,1.018 C48.636,0.878 48.622,0.71 48.594,0.542 C48.244,0.696 47.712,0.836 46.942,0.836 C45.78,0.836 44.954,0.514 43.456,0.514 C40.404,0.514 39.284,1.956 39.284,3.482 C39.284,4.994 40.012,5.512 40.936,5.512 C40.67,5.204 40.362,4.686 40.362,3.566 C40.362,2.068 41.216,1.592 42.784,1.592 C42.966,1.592 43.148,1.592 43.344,1.62 L43.344,11 L44.856,11 L44.856,1.844 C45.682,2.026 46.48,2.18 47.152,2.18 L47.152,2.18 Z M46.746,4 L46.746,8.914 C46.746,10.51 47.628,11.084 48.72,11.084 C49.294,11.084 49.868,10.748 50.232,9.992 C50.554,10.706 51.268,11.084 51.996,11.084 C53.928,11.084 54.586,8.396 54.586,6.282 C54.586,4.392 54.054,3.706 53.41,3.706 C52.948,3.706 52.696,4.056 52.696,4.42 C52.696,4.77 52.92,5.162 53.368,5.162 C53.452,5.162 53.648,5.148 53.732,5.05 C53.816,5.456 53.858,6.002 53.858,6.52 C53.858,8.172 53.438,10.02 52.29,10.02 C51.604,10.02 51.478,9.376 51.478,8.76 L51.478,4 L50.078,4 L50.078,8.494 C50.078,9.46 49.518,10.02 48.986,10.02 C48.496,10.02 48.146,9.67 48.146,8.76 L48.146,4 L46.746,4 Z M58.03,3.93 C55.93,3.93 55.3,6.184 55.3,7.822 C55.3,10.23 56.672,11.084 57.918,11.084 C59.43,11.084 60.312,9.698 60.312,7.402 C60.312,7.178 60.312,6.968 60.284,6.744 C60.9,6.436 61.222,5.694 61.376,5.078 L60.97,5.078 C60.872,5.358 60.704,5.778 60.172,5.778 C59.934,4.714 59.346,3.93 58.03,3.93 L58.03,3.93 Z M58.17,10.02 C57.54,10.02 56.812,9.586 56.812,7.766 C56.812,6.394 57.232,4.7 58.394,4.7 C58.786,4.7 59.136,4.896 59.36,5.442 C59.052,5.484 58.842,5.694 58.842,6.072 C58.842,6.604 59.08,6.912 59.598,6.912 C59.598,7.01 59.612,7.108 59.612,7.206 C59.612,8.984 59.15,10.02 58.17,10.02 L58.17,10.02 Z" id="Lobster-Two" fill="#000000" sketch:type="MSShapeGroup"></path>
</svg>