<svg width="70px" height="15px" viewBox="0 0 70 15" version="1.1" xmlns="http://www.w3.org/2000/svg" xmlns:xlink="http://www.w3.org/1999/xlink" xmlns:sketch="http://www.bohemiancoding.com/sketch/ns">
  <path d="M10.0488281,5.98925781 C10.0488281,7.58887519 9.64437253,8.84667511 8.83544922,9.76269531 C8.0265259,10.6787155 6.90202543,11.1367188 5.46191406,11.1367188 C3.98990149,11.1367188 2.85400791,10.6866907 2.05419922,9.78662109 C1.25439053,8.88655149 0.854492188,7.61621914 0.854492188,5.97558594 C0.854492188,4.34862468 1.25552984,3.08740682 2.05761719,2.19189453 C2.85970453,1.29638224 3.99901605,0.848632812 5.47558594,0.848632812 C6.91113999,0.848632812 8.03222253,1.30435742 8.83886719,2.21582031 C9.64551185,3.1272832 10.0488281,4.38508313 10.0488281,5.98925781 L10.0488281,5.98925781 Z M2.08496094,5.98925781 C2.08496094,7.34278021 2.37320675,8.36929989 2.94970703,9.06884766 C3.52620731,9.76839542 4.36360128,10.1181641 5.46191406,10.1181641 C6.56934147,10.1181641 7.40559613,9.76953474 7.97070312,9.07226562 C8.53581012,8.37499651 8.81835938,7.34733752 8.81835938,5.98925781 C8.81835938,4.64485005 8.53694943,3.62516624 7.97412109,2.93017578 C7.41129276,2.23518533 6.57845604,1.88769531 5.47558594,1.88769531 C4.36815853,1.88769531 3.52620731,2.23746395 2.94970703,2.93701172 C2.37320675,3.63655949 2.08496094,4.65396468 2.08496094,5.98925781 L2.08496094,5.98925781 Z M15.5927734,11.1367188 C15.1051408,11.1367188 14.65967,11.0467131 14.2563477,10.8666992 C13.8530253,10.6866853 13.5146498,10.4098326 13.2412109,10.0361328 L13.1591797,10.0361328 C13.2138675,10.473635 13.2412109,10.8883444 13.2412109,11.2802734 L13.2412109,14.3632812 L12.1064453,14.3632812 L12.1064453,3.5078125 L13.0292969,3.5078125 L13.1865234,4.53320312 L13.2412109,4.53320312 C13.5328791,4.12304482 13.8723939,3.82682383 14.2597656,3.64453125 C14.6471374,3.46223867 15.0914688,3.37109375 15.5927734,3.37109375 C16.586268,3.37109375 17.3530246,3.71060858 17.8930664,4.38964844 C18.4331082,5.06868829 18.703125,6.02115272 18.703125,7.24707031 C18.703125,8.47754521 18.4285509,9.43342758 17.8793945,10.1147461 C17.3302381,10.7960646 16.5680387,11.1367188 15.5927734,11.1367188 L15.5927734,11.1367188 Z M15.4287109,4.33496094 C14.6630821,4.33496094 14.1093767,4.54687288 13.7675781,4.97070312 C13.4257795,5.39453337 13.2503256,6.06900579 13.2412109,6.99414062 L13.2412109,7.24707031 C13.2412109,8.29980995 13.4166649,9.05289487 13.7675781,9.50634766 C14.1184913,9.95980044 14.6813112,10.1865234 15.4560547,10.1865234 C16.1031933,10.1865234 16.610187,9.92448179 16.9770508,9.40039062 C17.3439146,8.87629946 17.5273438,8.15397596 17.5273438,7.23339844 C17.5273438,6.29914897 17.3439146,5.58252203 16.9770508,5.08349609 C16.610187,4.58447016 16.0940788,4.33496094 15.4287109,4.33496094 L15.4287109,4.33496094 Z M23.8505859,11.1367188 C22.7431585,11.1367188 21.8693066,10.7994825 21.2290039,10.125 C20.5887012,9.45051746 20.2685547,8.51400339 20.2685547,7.31542969 C20.2685547,6.10774136 20.565915,5.14844105 21.1606445,4.4375 C21.7553741,3.72655895 22.5540314,3.37109375 23.5566406,3.37109375 C24.4954474,3.37109375 25.2382785,3.67984717 25.7851562,4.29736328 C26.332034,4.91487939 26.6054688,5.72948713 26.6054688,6.74121094 L26.6054688,7.45898438 L21.4443359,7.45898438 C21.4671225,8.33854606 21.6892883,9.00618262 22.1108398,9.46191406 C22.5323914,9.91764551 23.1259727,10.1455078 23.8916016,10.1455078 C24.6982462,10.1455078 25.4957643,9.97688971 26.2841797,9.63964844 L26.2841797,10.6513672 C25.883136,10.8245451 25.5037453,10.9487301 25.1459961,11.0239258 C24.7882469,11.0991215 24.3564478,11.1367188 23.8505859,11.1367188 L23.8505859,11.1367188 Z M23.5429688,4.32128906 C22.9414032,4.32128906 22.4617531,4.51725064 22.1040039,4.90917969 C21.7462547,5.30110873 21.5354821,5.84342102 21.4716797,6.53613281 L25.3886719,6.53613281 C25.3886719,5.82063444 25.2291683,5.2726256 24.9101562,4.89208984 C24.5911442,4.51155409 24.1354196,4.32128906 23.5429688,4.32128906 L23.5429688,4.32128906 Z M33.6669922,11 L33.6669922,6.15332031 C33.6669922,5.54264018 33.5279962,5.08691557 33.25,4.78613281 C32.9720038,4.48535006 32.5367868,4.33496094 31.9443359,4.33496094 C31.1604779,4.33496094 30.5862648,4.54687288 30.2216797,4.97070312 C29.8570945,5.39453337 29.6748047,6.09407064 29.6748047,7.06933594 L29.6748047,11 L28.5400391,11 L28.5400391,3.5078125 L29.4628906,3.5078125 L29.6474609,4.53320312 L29.7021484,4.53320312 C29.9345715,4.16406065 30.2604146,3.87809346 30.6796875,3.67529297 C31.0989604,3.47249248 31.5660782,3.37109375 32.0810547,3.37109375 C32.9834029,3.37109375 33.6624326,3.58870225 34.1181641,4.02392578 C34.5738955,4.45914931 34.8017578,5.15526865 34.8017578,6.11230469 L34.8017578,11 L33.6669922,11 Z M46.5800781,8.34082031 C46.5800781,9.220382 46.2610709,9.90624754 45.6230469,10.3984375 C44.9850229,10.8906275 44.1191461,11.1367188 43.0253906,11.1367188 C41.8404889,11.1367188 40.9290396,10.984051 40.2910156,10.6787109 L40.2910156,9.55761719 C40.7011739,9.73079514 41.147784,9.86751252 41.6308594,9.96777344 C42.1139347,10.0680344 42.5924455,10.1181641 43.0664062,10.1181641 C43.8411497,10.1181641 44.4244772,9.97119288 44.8164062,9.67724609 C45.2083353,9.38329931 45.4042969,8.97428647 45.4042969,8.45019531 C45.4042969,8.10383941 45.3347989,7.82015084 45.1958008,7.59912109 C45.0568027,7.37809134 44.8243831,7.17415458 44.4985352,6.98730469 C44.1726872,6.80045479 43.6770867,6.58854285 43.0117187,6.3515625 C42.0820266,6.01887854 41.417808,5.62467676 41.019043,5.16894531 C40.620278,4.71321387 40.4208984,4.11849325 40.4208984,3.38476562 C40.4208984,2.61457948 40.7102836,2.00162988 41.2890625,1.54589844 C41.8678414,1.09016699 42.6334588,0.862304688 43.5859375,0.862304688 C44.5794321,0.862304688 45.4931599,1.04459453 46.3271484,1.40917969 L45.9648437,2.42089844 C45.1399698,2.07454254 44.3378945,1.90136719 43.5585937,1.90136719 C42.9433563,1.90136719 42.4625668,2.03352732 42.1162109,2.29785156 C41.769855,2.5621758 41.5966797,2.92903411 41.5966797,3.3984375 C41.5966797,3.7447934 41.6604811,4.02848197 41.7880859,4.24951172 C41.9156907,4.47054147 42.1310206,4.67333892 42.434082,4.85791016 C42.7371434,5.04248139 43.2008432,5.24641815 43.8251953,5.46972656 C44.8733776,5.84342635 45.5945618,6.244464 45.9887695,6.67285156 C46.3829772,7.10123912 46.5800781,7.65722314 46.5800781,8.34082031 L46.5800781,8.34082031 Z M53.0605469,11 L52.8349609,9.93359375 L52.7802734,9.93359375 C52.4065737,10.4029971 52.0340188,10.7208651 51.6625977,10.887207 C51.2911765,11.053549 50.8274767,11.1367188 50.2714844,11.1367188 C49.5286421,11.1367188 48.9464539,10.9453144 48.5249023,10.5625 C48.1033508,10.1796856 47.8925781,9.63509468 47.8925781,8.92871094 C47.8925781,7.41568254 49.102527,6.62272172 51.5224609,6.54980469 L52.7939453,6.50878906 L52.7939453,6.04394531 C52.7939453,5.45605175 52.6674817,5.02197406 52.4145508,4.74169922 C52.1616198,4.46142438 51.7571642,4.32128906 51.2011719,4.32128906 C50.5768198,4.32128906 49.8704467,4.5126934 49.0820312,4.89550781 L48.7333984,4.02734375 C49.1025409,3.82682191 49.5069965,3.66959692 49.9467773,3.55566406 C50.3865582,3.4417312 50.8274717,3.38476562 51.2695312,3.38476562 C52.1627649,3.38476562 52.8247049,3.58300583 53.2553711,3.97949219 C53.6860373,4.37597854 53.9013672,5.01171437 53.9013672,5.88671875 L53.9013672,11 L53.0605469,11 Z M50.4970703,10.2001953 C51.2034541,10.2001953 51.7582988,10.0065124 52.1616211,9.61914062 C52.5649434,9.2317689 52.7666016,8.68945661 52.7666016,7.9921875 L52.7666016,7.31542969 L51.6318359,7.36328125 C50.7294877,7.39518245 50.0789408,7.53531777 49.6801758,7.78369141 C49.2814108,8.03206504 49.0820312,8.41829165 49.0820312,8.94238281 C49.0820312,9.35254111 49.2062162,9.66471247 49.4545898,9.87890625 C49.7029635,10.0931 50.0504535,10.2001953 50.4970703,10.2001953 L50.4970703,10.2001953 Z M61.3662109,11 L61.3662109,6.15332031 C61.3662109,5.54264018 61.2272149,5.08691557 60.9492188,4.78613281 C60.6712226,4.48535006 60.2360056,4.33496094 59.6435547,4.33496094 C58.8596966,4.33496094 58.2854836,4.54687288 57.9208984,4.97070312 C57.5563133,5.39453337 57.3740234,6.09407064 57.3740234,7.06933594 L57.3740234,11 L56.2392578,11 L56.2392578,3.5078125 L57.1621094,3.5078125 L57.3466797,4.53320312 L57.4013672,4.53320312 C57.6337902,4.16406065 57.9596333,3.87809346 58.3789062,3.67529297 C58.7981792,3.47249248 59.2652969,3.37109375 59.7802734,3.37109375 C60.6826217,3.37109375 61.3616514,3.58870225 61.8173828,4.02392578 C62.2731143,4.45914931 62.5009766,5.15526865 62.5009766,6.11230469 L62.5009766,11 L61.3662109,11 Z M69.6650391,8.95605469 C69.6650391,9.6533238 69.405276,10.1910788 68.8857422,10.5693359 C68.3662083,10.947593 67.637049,11.1367188 66.6982422,11.1367188 C65.7047476,11.1367188 64.9300158,10.9794938 64.3740234,10.6650391 L64.3740234,9.61230469 C64.7340513,9.79459727 65.1202779,9.93815052 65.5327148,10.0429688 C65.9451518,10.147787 66.3427715,10.2001953 66.7255859,10.2001953 C67.3180368,10.2001953 67.7737614,10.1056325 68.0927734,9.91650391 C68.4117854,9.72737536 68.5712891,9.43912954 68.5712891,9.05175781 C68.5712891,8.76008969 68.4448255,8.51058046 68.1918945,8.30322266 C67.9389636,8.09586485 67.4456417,7.85091287 66.7119141,7.56835938 C66.014645,7.30859245 65.5190444,7.08186946 65.2250977,6.88818359 C64.9311509,6.69449773 64.7124031,6.47461061 64.5688477,6.22851562 C64.4252923,5.98242064 64.3535156,5.68847827 64.3535156,5.34667969 C64.3535156,4.73599955 64.6018855,4.25407078 65.0986328,3.90087891 C65.5953801,3.54768704 66.2766884,3.37109375 67.1425781,3.37109375 C67.9492228,3.37109375 68.7376264,3.53515461 69.5078125,3.86328125 L69.1044922,4.78613281 C68.3525353,4.47623543 67.671227,4.32128906 67.0605469,4.32128906 C66.5227838,4.32128906 66.1171889,4.40559812 65.84375,4.57421875 C65.5703111,4.74283938 65.4335938,4.97525894 65.4335938,5.27148438 C65.4335938,5.47200621 65.4848628,5.64290294 65.5874023,5.78417969 C65.6899419,5.92545644 65.8551421,6.0598952 66.0830078,6.1875 C66.3108735,6.3151048 66.7483692,6.49967327 67.3955078,6.74121094 C68.2841841,7.06478026 68.8846013,7.39062336 69.1967773,7.71875 C69.5089534,8.04687664 69.6650391,8.45930741 69.6650391,8.95605469 L69.6650391,8.95605469 Z" sketch:type="MSShapeGroup"></path>
</svg>