<svg width="47px" height="18px" viewBox="0 0 47 18" version="1.1" xmlns="http://www.w3.org/2000/svg" xmlns:xlink="http://www.w3.org/1999/xlink" xmlns:sketch="http://www.bohemiancoding.com/sketch/ns">
  <path d="M6.54882812,0.538085938 C7.31445695,0.538085938 7.98551144,0.641763286 8.56201172,0.849121094 C9.138512,1.0564789 9.61816215,1.33219229 10.0009766,1.67626953 C10.383791,2.02034677 10.6720368,2.41568787 10.8657227,2.86230469 C11.0594085,3.3089215 11.15625,3.77148198 11.15625,4.25 C11.15625,4.69661682 11.0696623,5.13866969 10.8964844,5.57617188 C10.7233064,6.01367406 10.4624041,6.41699034 10.1137695,6.78613281 C9.76513498,7.15527528 9.32536073,7.47428251 8.79443359,7.74316406 C8.26350646,8.01204562 7.64030306,8.20117133 6.92480469,8.31054688 C6.91113274,8.64323083 6.89973963,8.94856632 6.890625,9.2265625 C6.88606769,9.34505268 6.88151044,9.46354107 6.87695312,9.58203125 C6.87239581,9.70052143 6.86897788,9.80875602 6.86669922,9.90673828 C6.86442056,10.0047205 6.86214194,10.0901689 6.85986328,10.1630859 C6.85758462,10.236003 6.85644531,10.2861327 6.85644531,10.3134766 C6.84733068,10.6324886 6.8097334,10.9640282 6.74365234,11.3081055 C6.67757128,11.6521827 6.58186912,11.9882796 6.45654297,12.3164062 C6.33121682,12.6445329 6.17854908,12.9555649 5.99853516,13.2495117 C5.81852124,13.5434585 5.60888792,13.8009429 5.36962891,14.0219727 C5.1303699,14.2430024 4.86263169,14.4184564 4.56640625,14.5483398 C4.27018081,14.6782233 3.94661634,14.7431641 3.59570312,14.7431641 C3.22200334,14.7431641 2.88818506,14.6463226 2.59423828,14.4526367 C2.3002915,14.2589509 2.04280709,13.9980485 1.82177734,13.6699219 C1.60074759,13.3417952 1.4139005,12.9635438 1.26123047,12.5351562 C1.10856043,12.1067687 0.984375479,11.6590193 0.888671875,11.1918945 C0.792968271,10.7247698 0.723470269,10.2542341 0.680175781,9.78027344 C0.636881294,9.30631273 0.615234375,8.85970262 0.615234375,8.44042969 C0.615234375,7.720374 0.681314443,7.02539397 0.813476562,6.35546875 C0.945638682,5.68554353 1.13476439,5.05778288 1.38085938,4.47216797 C1.62695436,3.88655306 1.92545397,3.35221596 2.27636719,2.86914062 C2.6272804,2.38606529 3.0226215,1.9713559 3.46240234,1.625 C3.90218319,1.2786441 4.38069403,1.01090589 4.89794922,0.821777344 C5.41520441,0.632648794 5.96549187,0.538085938 6.54882812,0.538085938 L6.54882812,0.538085938 Z M2.44726562,8.26269531 C2.44726562,8.44954521 2.44840494,8.70133305 2.45068359,9.01806641 C2.45296225,9.33479976 2.46549468,9.67317528 2.48828125,10.0332031 C2.51106782,10.393231 2.54752579,10.7578107 2.59765625,11.1269531 C2.64778671,11.4960956 2.72184196,11.8299139 2.81982422,12.128418 C2.91780648,12.4269221 3.04085212,12.6707347 3.18896484,12.8598633 C3.33707756,13.0489918 3.52278534,13.1435547 3.74609375,13.1435547 C3.97851679,13.1435547 4.17675699,13.0626636 4.34082031,12.9008789 C4.50488363,12.7390942 4.64160102,12.5294609 4.75097656,12.2719727 C4.86035211,12.0144844 4.94693979,11.7228206 5.01074219,11.3969727 C5.07454459,11.0711247 5.12239567,10.7441423 5.15429688,10.4160156 C5.18619808,10.087889 5.20670568,9.77457832 5.21582031,9.47607422 C5.22493494,9.17757012 5.22949219,8.92350365 5.22949219,8.71386719 L5.22949219,8.39257812 C4.85123509,8.24218675 4.55387478,8.11002661 4.33740234,7.99609375 C4.12092991,7.88216089 3.95800836,7.77278698 3.84863281,7.66796875 C3.73925727,7.56315052 3.66975926,7.4526373 3.64013672,7.33642578 C3.61051417,7.22021426 3.59570312,7.08463619 3.59570312,6.9296875 C3.59570312,6.84765584 3.59798175,6.76676472 3.60253906,6.68701172 C3.60709638,6.60725872 3.6196288,6.5366214 3.64013672,6.47509766 C3.66064463,6.41357391 3.69026673,6.3634442 3.72900391,6.32470703 C3.76774108,6.28596986 3.82128872,6.26660156 3.88964844,6.26660156 C3.93522158,6.26660156 3.97737611,6.27571605 4.01611328,6.29394531 C4.05485045,6.31217457 4.10384085,6.33723942 4.16308594,6.36914062 C4.31347731,6.45117229 4.4501947,6.51839167 4.57324219,6.57080078 C4.69628968,6.6232099 4.80110634,6.66536442 4.88769531,6.69726562 C4.98795623,6.73372414 5.07910115,6.76106762 5.16113281,6.77929688 C5.16113281,6.72005179 5.16227212,6.6027027 5.16455078,6.42724609 C5.16682944,6.25178949 5.18050118,6.05127066 5.20556641,5.82568359 C5.23063164,5.60009653 5.27278616,5.36425904 5.33203125,5.11816406 C5.39127634,4.87206908 5.47786401,4.6464854 5.59179688,4.44140625 C5.70572974,4.2363271 5.85384023,4.06656968 6.03613281,3.93212891 C6.21842539,3.79768813 6.44400907,3.73046875 6.71289062,3.73046875 C6.79492229,3.73046875 6.87923134,3.73844393 6.96582031,3.75439453 C7.05240929,3.77034513 7.13102178,3.79996723 7.20166016,3.84326172 C7.27229853,3.88655621 7.33154273,3.94466109 7.37939453,4.01757812 C7.42724633,4.09049516 7.45117188,4.1839187 7.45117188,4.29785156 C7.45117188,4.32975276 7.45003256,4.35139968 7.44775391,4.36279297 C7.44547525,4.37418625 7.44433594,4.3889973 7.44433594,4.40722656 L7.02734375,6.1640625 L6.96582031,6.70410156 C7.41243713,6.63574185 7.79752442,6.52636794 8.12109375,6.37597656 C8.44466308,6.22558519 8.71240128,6.04785259 8.92431641,5.84277344 C9.13623153,5.63769429 9.29345652,5.41211061 9.39599609,5.16601562 C9.49853567,4.91992064 9.54980469,4.66699349 9.54980469,4.40722656 C9.54980469,4.15201695 9.50081429,3.89111461 9.40283203,3.62451172 C9.30484977,3.35790882 9.13509235,3.11523547 8.89355469,2.89648438 C8.65201702,2.67773328 8.32845255,2.49772206 7.92285156,2.35644531 C7.51725058,2.21516856 7.00683901,2.14453125 6.39160156,2.14453125 C5.9313128,2.14453125 5.51432479,2.23225824 5.140625,2.40771484 C4.76692521,2.58317145 4.43424625,2.82128756 4.14257812,3.12207031 C3.85091,3.42285307 3.59798284,3.77376102 3.38378906,4.17480469 C3.16959528,4.57584836 2.993002,5.00309018 2.85400391,5.45654297 C2.71500582,5.90999576 2.61246778,6.37711348 2.54638672,6.85791016 C2.48030566,7.33870683 2.44726562,7.80696387 2.44726562,8.26269531 L2.44726562,8.26269531 Z M17.6025391,11.3251953 C17.4977208,11.4710294 17.3575855,11.6419261 17.1821289,11.8378906 C17.0066723,12.0338551 16.8095714,12.2207022 16.5908203,12.3984375 C16.3720692,12.5761728 16.137371,12.7265619 15.8867188,12.8496094 C15.6360665,12.9726569 15.3854179,13.0341797 15.1347656,13.0341797 C14.8339829,13.0341797 14.5833343,12.9373382 14.3828125,12.7436523 C14.1822907,12.5499665 14.0091153,12.2685565 13.8632812,11.8994141 C13.7539057,12.0270189 13.6194669,12.1569004 13.4599609,12.2890625 C13.3004549,12.4212246 13.1261403,12.5408523 12.9370117,12.6479492 C12.7478832,12.7550461 12.5507823,12.8427731 12.3457031,12.9111328 C12.140624,12.9794925 11.9355479,13.0136719 11.7304688,13.0136719 C11.5117177,13.0136719 11.2986664,12.9692387 11.0913086,12.8803711 C10.8839508,12.7915035 10.7005216,12.6639006 10.5410156,12.4975586 C10.3815096,12.3312166 10.2539067,12.1284192 10.1582031,11.8891602 C10.0624995,11.6499011 10.0146484,11.3798843 10.0146484,11.0791016 C10.0146484,10.737303 10.0624995,10.386395 10.1582031,10.0263672 C10.2539067,9.66633935 10.4020172,9.2766948 10.6025391,8.85742188 C10.8030609,8.43814895 11.0183908,8.07584788 11.2485352,7.77050781 C11.4786795,7.46516774 11.7304674,7.19856885 12.0039062,6.97070312 C12.2773451,6.7428374 12.5655909,6.56168687 12.8686523,6.42724609 C13.1717138,6.29280532 13.4804672,6.22558594 13.7949219,6.22558594 C13.8997401,6.22558594 13.9817705,6.24609354 14.0410156,6.28710938 C14.1002607,6.32812521 14.1492511,6.37483698 14.1879883,6.42724609 C14.2267255,6.47965521 14.2643227,6.53092423 14.3007812,6.58105469 C14.3372398,6.63118515 14.3828122,6.66764312 14.4375,6.69042969 C14.4921878,6.71321626 14.548014,6.72802731 14.6049805,6.73486328 C14.6619469,6.74169925 14.7200518,6.74511719 14.7792969,6.74511719 C14.8294273,6.74511719 14.8806964,6.74397788 14.9331055,6.74169922 C14.9855146,6.73942056 15.0367836,6.73828125 15.0869141,6.73828125 C15.1552738,6.73828125 15.2190752,6.74511712 15.2783203,6.75878906 C15.3375654,6.77246101 15.3899737,6.80208311 15.4355469,6.84765625 C15.48112,6.89322939 15.5164387,6.95703084 15.5415039,7.0390625 C15.5665691,7.12109416 15.5791016,7.23274669 15.5791016,7.37402344 C15.5791016,7.59277453 15.5563153,7.83544789 15.5107422,8.10205078 C15.465169,8.36865368 15.4150393,8.64208844 15.3603516,8.92236328 C15.3056638,9.20263812 15.2395837,9.52050604 15.1621094,9.87597656 C15.084635,10.2314471 15.0458984,10.534504 15.0458984,10.7851562 C15.0458984,10.99935 15.0652667,11.1668288 15.1040039,11.2875977 C15.1427411,11.4083665 15.2259108,11.46875 15.3535156,11.46875 C15.4492192,11.46875 15.5494786,11.4448245 15.6542969,11.3969727 C15.7591151,11.3491209 15.8650711,11.2864587 15.972168,11.2089844 C16.0792649,11.13151 16.1863601,11.043783 16.293457,10.9458008 C16.4005539,10.8478185 16.5019526,10.7464198 16.5976562,10.6416016 C16.8209647,10.3955066 17.0465483,10.1175146 17.2744141,9.80761719 L17.6025391,11.3251953 Z M11.7646484,10.7851562 C11.7646484,10.8990891 11.7726236,11.0096023 11.7885742,11.1166992 C11.8045248,11.2237961 11.8330076,11.3194983 11.8740234,11.4038086 C11.9150393,11.4881189 11.9697262,11.5564776 12.0380859,11.6088867 C12.1064457,11.6612958 12.1930333,11.6875 12.2978516,11.6875 C12.4664722,11.6875 12.6191399,11.6145841 12.7558594,11.46875 C12.8925788,11.3229159 13.0110672,11.147462 13.1113281,10.9423828 C13.211589,10.7373037 13.2924802,10.5253917 13.3540039,10.3066406 C13.4155277,10.0878895 13.4554036,9.90559969 13.4736328,9.75976562 L13.9863281,7.52441406 C13.7994782,7.52441406 13.6171884,7.57112583 13.4394531,7.66455078 C13.2617179,7.75797573 13.0942391,7.88443931 12.9370117,8.04394531 C12.7797844,8.20345132 12.6350918,8.38574116 12.5029297,8.59082031 C12.3707676,8.79589946 12.2408861,9.04882662 12.1132812,9.34960938 C11.9856764,9.65039213 11.8956708,9.9147124 11.8432617,10.1425781 C11.7908526,10.3704438 11.7646484,10.5846344 11.7646484,10.7851562 L11.7646484,10.7851562 Z M19.1953125,13 C18.7760396,13 18.4080419,12.9225268 18.0913086,12.7675781 C17.7745752,12.6126294 17.5091157,12.4052747 17.2949219,12.1455078 C17.0807281,11.8857409 16.9189459,11.5849626 16.8095703,11.2431641 C16.7001948,10.9013655 16.6455078,10.5459003 16.6455078,10.1767578 C16.6455078,9.91243357 16.6910803,9.59570497 16.7822266,9.2265625 C16.8733729,8.85742003 16.972493,8.53499487 17.0795898,8.25927734 C17.1866867,7.98355982 17.3188469,7.72037886 17.4760742,7.46972656 C17.6333016,7.21907427 17.8155914,6.99918714 18.0229492,6.81005859 C18.230307,6.62093004 18.4615873,6.47054092 18.7167969,6.35888672 C18.9720065,6.24723251 19.2522771,6.19140625 19.5576172,6.19140625 C19.8173841,6.19140625 20.0577788,6.23128215 20.2788086,6.31103516 C20.4998383,6.39078816 20.6889641,6.50130138 20.8461914,6.64257812 C21.0034188,6.78385487 21.1264644,6.95133367 21.215332,7.14501953 C21.3041997,7.3387054 21.3486328,7.5471994 21.3486328,7.77050781 C21.3486328,7.9254565 21.3281252,8.07812425 21.2871094,8.22851562 C21.2460935,8.378907 21.1663417,8.55550029 21.0478516,8.75830078 C20.9293614,8.96110127 20.8142909,9.09895797 20.7026367,9.171875 C20.5909825,9.24479203 20.4645189,9.28125 20.3232422,9.28125 C20.1044911,9.28125 19.9632165,9.22428442 19.8994141,9.11035156 C19.7945958,8.9326163 19.7626951,8.77539131 19.8037109,8.63867188 C19.8173829,8.56575484 19.8583981,8.39713674 19.9267578,8.1328125 C19.9358724,8.09635398 19.9381511,8.01432355 19.9335938,7.88671875 C19.9335938,7.7773432 19.9222006,7.68619828 19.8994141,7.61328125 C19.8766275,7.54036422 19.8264978,7.50390625 19.7490234,7.50390625 C19.5621735,7.50390625 19.4026699,7.5483394 19.2705078,7.63720703 C19.1383457,7.72607466 19.0255539,7.84228444 18.9321289,7.98583984 C18.838704,8.12939525 18.7464197,8.3321927 18.6552734,8.59423828 C18.5641271,8.85628386 18.4991864,9.07617099 18.4604492,9.25390625 C18.421712,9.43164151 18.3977865,9.60139893 18.3886719,9.76318359 C18.3795572,9.92496826 18.375,10.0605463 18.375,10.1699219 C18.375,10.3339852 18.389811,10.5048819 18.4194336,10.6826172 C18.4490561,10.8603525 18.5083003,11.023274 18.597168,11.1713867 C18.6860356,11.3194994 18.8011061,11.4425451 18.9423828,11.5405273 C19.0836596,11.6385096 19.2659494,11.6875 19.4892578,11.6875 C19.7080089,11.6875 19.9495429,11.6202806 20.2138672,11.4858398 C20.4781914,11.3513991 20.743651,11.1816417 21.0102539,10.9765625 C21.2768568,10.7714833 21.5309233,10.5458997 21.7724609,10.2998047 C22.0139986,10.0537097 22.2213533,9.82129016 22.3945312,9.60253906 L22.8662109,10.3955078 C22.5244124,10.8831405 22.1552754,11.3183575 21.7587891,11.7011719 C21.5901684,11.8652352 21.4067393,12.0247388 21.2084961,12.1796875 C21.0102529,12.3346362 20.8028982,12.4724929 20.5864258,12.5932617 C20.3699533,12.7140306 20.1443697,12.8120113 19.909668,12.887207 C19.6749663,12.9624027 19.4368502,13 19.1953125,13 L19.1953125,13 Z M26.3935547,11.5439453 C26.2294914,11.6943367 26.0255546,11.8549796 25.7817383,12.0258789 C25.537922,12.1967782 25.274741,12.3540032 24.9921875,12.4975586 C24.709634,12.641114 24.4213882,12.7607417 24.1274414,12.8564453 C23.8334946,12.9521489 23.5543633,13 23.2900391,13 C23.0530587,13 22.8536792,12.96696 22.6918945,12.9008789 C22.5301099,12.8347978 22.399089,12.7425136 22.2988281,12.6240234 C22.1985672,12.5055333 22.1267906,12.3608407 22.0834961,12.1899414 C22.0402016,12.0190421 22.0185547,11.8310557 22.0185547,11.6259766 C22.0185547,11.3388658 22.0504554,11.0039082 22.1142578,10.6210938 C22.2418626,9.88280881 22.323893,9.46809941 22.3603516,9.37695312 C22.424154,9.17643129 22.5517569,8.73209979 22.7431641,8.04394531 C22.8981128,7.46972369 22.9938149,7.09602951 23.0302734,6.92285156 C23.05306,6.8089187 23.1168615,6.70638066 23.2216797,6.61523438 C23.3173833,6.53320271 23.4256179,6.46598333 23.5463867,6.41357422 C23.6671556,6.3611651 23.7924798,6.32242851 23.9223633,6.29736328 C24.0522467,6.27229805 24.1695958,6.25976562 24.2744141,6.25976562 C24.4658213,6.25976562 24.5957028,6.29508428 24.6640625,6.36572266 C24.7324222,6.43636103 24.7666016,6.53092389 24.7666016,6.64941406 C24.7666016,6.74967498 24.7438153,6.89436754 24.6982422,7.08349609 C24.652669,7.27262464 24.5957035,7.48681521 24.5273438,7.72607422 C24.458984,7.96533323 24.3723964,8.25243973 24.2675781,8.58740234 C24.1627599,8.92236496 24.0761722,9.22770044 24.0078125,9.50341797 C23.9394528,9.77913549 23.8824872,10.048013 23.8369141,10.3100586 C23.7913409,10.5721042 23.7685547,10.8079417 23.7685547,11.0175781 C23.7685547,11.2226573 23.7913409,11.3855788 23.8369141,11.5063477 C23.8824872,11.6271165 23.9759108,11.6875 24.1171875,11.6875 C24.2812508,11.6875 24.4635407,11.6305344 24.6640625,11.5166016 C24.8645843,11.4026687 25.0673818,11.264812 25.2724609,11.1030273 C25.4775401,10.9412427 25.6780589,10.7737639 25.8740234,10.6005859 C26.069988,10.427408 26.2431633,10.2792975 26.3935547,10.15625 L26.3935547,11.5439453 Z M23.3378906,4.37988281 C23.3378906,4.27506458 23.3606769,4.15657618 23.40625,4.02441406 C23.4518231,3.89225194 23.5258784,3.76806699 23.628418,3.65185547 C23.7309575,3.53564395 23.8676749,3.43766316 24.0385742,3.35791016 C24.2094735,3.27815715 24.4225248,3.23828125 24.6777344,3.23828125 C24.8372404,3.23828125 24.9876295,3.25651023 25.1289062,3.29296875 C25.270183,3.32942727 25.3932286,3.38525353 25.4980469,3.46044922 C25.6028651,3.53564491 25.6860348,3.63476501 25.7475586,3.7578125 C25.8090823,3.88085999 25.8398438,4.02669187 25.8398438,4.1953125 C25.8398438,4.35026119 25.8147789,4.50065031 25.7646484,4.64648438 C25.714518,4.79231844 25.6347662,4.92219995 25.5253906,5.03613281 C25.4160151,5.15006567 25.2781584,5.24234991 25.1118164,5.31298828 C24.9454744,5.38362666 24.7460949,5.41894531 24.5136719,5.41894531 C24.1126282,5.41894531 23.8164072,5.32438246 23.625,5.13525391 C23.4335928,4.94612536 23.3378906,4.69433751 23.3378906,4.37988281 L23.3378906,4.37988281 Z M25.5048828,13.2597656 C25.5048828,13.2369791 25.5105794,13.097983 25.5219727,12.8427734 C25.5333659,12.5875638 25.5550129,12.248049 25.5869141,11.8242188 C25.6188153,11.4003885 25.6621091,10.9116239 25.7167969,10.3579102 C25.7714846,9.80419645 25.8432613,9.21859033 25.9321289,8.60107422 C26.0209965,7.98355811 26.1258132,7.3501009 26.246582,6.70068359 C26.3673509,6.05126628 26.5109041,5.41894839 26.6772461,4.80371094 C26.8435881,4.18847349 27.0338531,3.60856392 27.2480469,3.06396484 C27.4622407,2.51936577 27.7026354,2.04313355 27.9692383,1.63525391 C28.2358412,1.22737426 28.5332015,0.904949102 28.8613281,0.66796875 C29.1894548,0.430988398 29.5494772,0.3125 29.9414062,0.3125 C30.0963549,0.3125 30.2592765,0.339843477 30.4301758,0.39453125 C30.6010751,0.449219023 30.7571608,0.538085322 30.8984375,0.661132812 C31.0397142,0.784180303 31.1570633,0.947101851 31.2504883,1.14990234 C31.3439132,1.35270284 31.390625,1.60221206 31.390625,1.8984375 C31.390625,2.16731905 31.3484705,2.47607248 31.2641602,2.82470703 C31.1798498,3.17334159 31.0613614,3.54589646 30.9086914,3.94238281 C30.7560214,4.33886917 30.5760102,4.75129994 30.3686523,5.1796875 C30.1612945,5.60807506 29.9345715,6.03531688 29.6884766,6.46142578 C29.4423816,6.88753468 29.1837579,7.30680132 28.9125977,7.71923828 C28.6414374,8.13167524 28.3645847,8.51790185 28.0820312,8.87792969 L28.0683594,8.98730469 C28.1595057,8.94173154 28.2278644,8.91210944 28.2734375,8.8984375 C28.3190106,8.88476556 28.3668617,8.87792969 28.4169922,8.87792969 C28.4762373,8.87792969 28.5240884,8.88362625 28.5605469,8.89501953 C28.5970054,8.90641282 28.6300454,8.91894524 28.659668,8.93261719 C28.6892905,8.94628913 28.7200519,8.95882156 28.7519531,8.97021484 C28.7838543,8.98160813 28.8225909,8.98730469 28.8681641,8.98730469 C29.3193382,8.98730469 29.7180972,8.93375705 30.0644531,8.82666016 C30.410809,8.71956327 30.7024728,8.59993556 30.9394531,8.46777344 C31.2174493,8.31738206 31.4589833,8.14192809 31.6640625,7.94140625 L31.5136719,9.60253906 C31.2128891,9.76660238 30.8984391,9.89420527 30.5703125,9.98535156 C30.2421859,10.0764979 29.939129,10.1448565 29.6611328,10.1904297 C29.3375635,10.2405601 29.0162776,10.2724609 28.6972656,10.2861328 C28.8613289,10.5869156 29.0094394,10.8990869 29.1416016,11.2226562 C29.2555344,11.5006524 29.3592118,11.8116845 29.4526367,12.1557617 C29.5460617,12.499839 29.5927734,12.847329 29.5927734,13.1982422 C29.5927734,13.239258 29.5870769,13.3258457 29.5756836,13.4580078 C29.5642903,13.5901699 29.544922,13.7519522 29.5175781,13.9433594 C29.4902342,14.1347666 29.4514976,14.3466785 29.4013672,14.5791016 C29.3512367,14.8115246 29.286296,15.0462228 29.206543,15.2832031 C29.12679,15.5201835 29.0299485,15.7491851 28.9160156,15.9702148 C28.8020828,16.1912446 28.6687833,16.3872062 28.5161133,16.5581055 C28.3634432,16.7290048 28.1879893,16.8668615 27.9897461,16.9716797 C27.7915029,17.0764979 27.5670585,17.1289062 27.3164062,17.1289062 C27.065754,17.1289062 26.8470061,17.0719407 26.6601562,16.9580078 C26.4733064,16.844075 26.3138027,16.6902679 26.1816406,16.496582 C26.0494785,16.3028962 25.9389653,16.0773125 25.8500977,15.8198242 C25.76123,15.562336 25.691732,15.2900405 25.6416016,15.0029297 C25.5914711,14.7158189 25.5561524,14.4230158 25.5356445,14.1245117 C25.5151366,13.8260076 25.5048828,13.5377618 25.5048828,13.2597656 L25.5048828,13.2597656 Z M27.3300781,9.67089844 C27.3118489,9.67089844 27.2913413,9.72216746 27.2685547,9.82470703 C27.2457681,9.92724661 27.2241212,10.0594067 27.2036133,10.2211914 C27.1831054,10.3829761 27.1637371,10.6153956 27.1455078,10.918457 C27.1272786,11.2215184 27.1113282,11.4698884 27.0976562,11.6635742 C27.0839843,11.8572601 27.0725912,12.0372713 27.0634766,12.2036133 C27.0543619,12.3699553 27.0498047,12.5009761 27.0498047,12.5966797 C27.0498047,13.2666049 27.0623371,13.7998027 27.0874023,14.1962891 C27.1124676,14.5927754 27.1443683,14.8935537 27.1831055,15.0986328 C27.2218426,15.303712 27.2651365,15.4370114 27.3129883,15.4985352 C27.3608401,15.5600589 27.4098305,15.5908203 27.4599609,15.5908203 C27.6149096,15.5908203 27.7390946,15.520183 27.8325195,15.3789062 C27.9259445,15.2376295 27.9965818,15.0587576 28.0444336,14.8422852 C28.0922854,14.6258127 28.1241861,14.3888359 28.1401367,14.1313477 C28.1560873,13.8738594 28.1640625,13.6266288 28.1640625,13.3896484 C28.1640625,13.2301424 28.1595053,13.0341808 28.1503906,12.8017578 C28.141276,12.5693348 28.1276043,12.3164076 28.109375,12.0429688 C28.0911457,11.7695299 28.0535485,11.4562192 27.996582,11.1030273 C27.9396156,10.7498355 27.8598638,10.4843759 27.7573242,10.3066406 C27.6547846,10.1289054 27.5716149,9.97851624 27.5078125,9.85546875 C27.4440101,9.73242126 27.3847659,9.67089844 27.3300781,9.67089844 L27.3300781,9.67089844 Z M28.9912109,2.52050781 C28.7360013,3.12663063 28.526368,3.70312227 28.3623047,4.25 C28.2119133,4.75130459 28.0991215,5.19563608 28.0239258,5.58300781 C27.9487301,5.97037954 27.8951825,6.31103369 27.8632812,6.60498047 C27.83138,6.89892725 27.7994793,7.17122271 27.7675781,7.421875 C28.0455743,6.89778384 28.3326808,6.38737228 28.6289062,5.890625 C28.9251317,5.39387772 29.1871733,4.92789931 29.4150391,4.49267578 C29.6429048,4.05745225 29.8377271,3.6370463 29.9995117,3.23144531 C30.1612964,2.82584433 30.2421875,2.5364592 30.2421875,2.36328125 C30.2421875,2.12174358 30.2080082,1.9451503 30.1396484,1.83349609 C30.0712887,1.72184189 29.9573576,1.66601562 29.7978516,1.66601562 C29.5608712,1.66601562 29.4013676,1.72070258 29.3193359,1.83007812 C29.2555335,1.92122441 29.1461596,2.15136534 28.9912109,2.52050781 L28.9912109,2.52050781 Z M35.2255859,11.5439453 C35.0615226,11.6943367 34.8575859,11.8549796 34.6137695,12.0258789 C34.3699532,12.1967782 34.1067722,12.3540032 33.8242188,12.4975586 C33.5416653,12.641114 33.2534194,12.7607417 32.9594727,12.8564453 C32.6655259,12.9521489 32.3863946,13 32.1220703,13 C31.88509,13 31.6857104,12.96696 31.5239258,12.9008789 C31.3621411,12.8347978 31.2311203,12.7425136 31.1308594,12.6240234 C31.0305985,12.5055333 30.9588218,12.3608407 30.9155273,12.1899414 C30.8722329,12.0190421 30.8505859,11.8310557 30.8505859,11.6259766 C30.8505859,11.3388658 30.8824867,11.0039082 30.9462891,10.6210938 C31.0738939,9.88280881 31.1559243,9.46809941 31.1923828,9.37695312 C31.2561852,9.17643129 31.3837881,8.73209979 31.5751953,8.04394531 C31.730144,7.46972369 31.8258462,7.09602951 31.8623047,6.92285156 C31.8850913,6.8089187 31.9488927,6.70638066 32.0537109,6.61523438 C32.1494145,6.53320271 32.2576491,6.46598333 32.378418,6.41357422 C32.4991868,6.3611651 32.6245111,6.32242851 32.7543945,6.29736328 C32.884278,6.27229805 33.0016271,6.25976562 33.1064453,6.25976562 C33.2978525,6.25976562 33.427734,6.29508428 33.4960938,6.36572266 C33.5644535,6.43636103 33.5986328,6.53092389 33.5986328,6.64941406 C33.5986328,6.74967498 33.5758466,6.89436754 33.5302734,7.08349609 C33.4847003,7.27262464 33.4277347,7.48681521 33.359375,7.72607422 C33.2910153,7.96533323 33.2044276,8.25243973 33.0996094,8.58740234 C32.9947911,8.92236496 32.9082035,9.22770044 32.8398438,9.50341797 C32.771484,9.77913549 32.7145185,10.048013 32.6689453,10.3100586 C32.6233722,10.5721042 32.6005859,10.8079417 32.6005859,11.0175781 C32.6005859,11.2226573 32.6233722,11.3855788 32.6689453,11.5063477 C32.7145185,11.6271165 32.807942,11.6875 32.9492188,11.6875 C33.1132821,11.6875 33.2955719,11.6305344 33.4960938,11.5166016 C33.6966156,11.4026687 33.899413,11.264812 34.1044922,11.1030273 C34.3095713,10.9412427 34.5100902,10.7737639 34.7060547,10.6005859 C34.9020192,10.427408 35.0751946,10.2792975 35.2255859,10.15625 L35.2255859,11.5439453 Z M32.1699219,4.37988281 C32.1699219,4.27506458 32.1927081,4.15657618 32.2382812,4.02441406 C32.2838544,3.89225194 32.3579096,3.76806699 32.4604492,3.65185547 C32.5629888,3.53564395 32.6997062,3.43766316 32.8706055,3.35791016 C33.0415048,3.27815715 33.254556,3.23828125 33.5097656,3.23828125 C33.6692716,3.23828125 33.8196608,3.25651023 33.9609375,3.29296875 C34.1022142,3.32942727 34.2252599,3.38525353 34.3300781,3.46044922 C34.4348964,3.53564491 34.5180661,3.63476501 34.5795898,3.7578125 C34.6411136,3.88085999 34.671875,4.02669187 34.671875,4.1953125 C34.671875,4.35026119 34.6468101,4.50065031 34.5966797,4.64648438 C34.5465492,4.79231844 34.4667974,4.92219995 34.3574219,5.03613281 C34.2480463,5.15006567 34.1101896,5.24234991 33.9438477,5.31298828 C33.7775057,5.38362666 33.5781262,5.41894531 33.3457031,5.41894531 C32.9446595,5.41894531 32.6484385,5.32438246 32.4570312,5.13525391 C32.265624,4.94612536 32.1699219,4.69433751 32.1699219,4.37988281 L32.1699219,4.37988281 Z M36.859375,13 C36.4401021,13 36.0721044,12.9225268 35.7553711,12.7675781 C35.4386377,12.6126294 35.1731782,12.4052747 34.9589844,12.1455078 C34.7447906,11.8857409 34.5830084,11.5849626 34.4736328,11.2431641 C34.3642573,10.9013655 34.3095703,10.5459003 34.3095703,10.1767578 C34.3095703,9.91243357 34.3551428,9.59570497 34.4462891,9.2265625 C34.5374354,8.85742003 34.6365555,8.53499487 34.7436523,8.25927734 C34.8507492,7.98355982 34.9829094,7.72037886 35.1401367,7.46972656 C35.2973641,7.21907427 35.4796539,6.99918714 35.6870117,6.81005859 C35.8943695,6.62093004 36.1256498,6.47054092 36.3808594,6.35888672 C36.636069,6.24723251 36.9163396,6.19140625 37.2216797,6.19140625 C37.4814466,6.19140625 37.7218413,6.23128215 37.9428711,6.31103516 C38.1639008,6.39078816 38.3530266,6.50130138 38.5102539,6.64257812 C38.6674813,6.78385487 38.7905269,6.95133367 38.8793945,7.14501953 C38.9682622,7.3387054 39.0126953,7.5471994 39.0126953,7.77050781 C39.0126953,7.9254565 38.9921877,8.07812425 38.9511719,8.22851562 C38.910156,8.378907 38.8304042,8.55550029 38.7119141,8.75830078 C38.5934239,8.96110127 38.4783534,9.09895797 38.3666992,9.171875 C38.255045,9.24479203 38.1285814,9.28125 37.9873047,9.28125 C37.7685536,9.28125 37.627279,9.22428442 37.5634766,9.11035156 C37.4586583,8.9326163 37.4267576,8.77539131 37.4677734,8.63867188 C37.4814454,8.56575484 37.5224606,8.39713674 37.5908203,8.1328125 C37.5999349,8.09635398 37.6022136,8.01432355 37.5976562,7.88671875 C37.5976562,7.7773432 37.5862631,7.68619828 37.5634766,7.61328125 C37.54069,7.54036422 37.4905603,7.50390625 37.4130859,7.50390625 C37.226236,7.50390625 37.0667324,7.5483394 36.9345703,7.63720703 C36.8024082,7.72607466 36.6896164,7.84228444 36.5961914,7.98583984 C36.5027665,8.12939525 36.4104822,8.3321927 36.3193359,8.59423828 C36.2281896,8.85628386 36.1632489,9.07617099 36.1245117,9.25390625 C36.0857745,9.43164151 36.061849,9.60139893 36.0527344,9.76318359 C36.0436197,9.92496826 36.0390625,10.0605463 36.0390625,10.1699219 C36.0390625,10.3339852 36.0538735,10.5048819 36.0834961,10.6826172 C36.1131186,10.8603525 36.1723628,11.023274 36.2612305,11.1713867 C36.3500981,11.3194994 36.4651686,11.4425451 36.6064453,11.5405273 C36.7477221,11.6385096 36.9300119,11.6875 37.1533203,11.6875 C37.3720714,11.6875 37.6136054,11.6202806 37.8779297,11.4858398 C38.1422539,11.3513991 38.4077135,11.1816417 38.6743164,10.9765625 C38.9409193,10.7714833 39.1949858,10.5458997 39.4365234,10.2998047 C39.6780611,10.0537097 39.8854158,9.82129016 40.0585938,9.60253906 L40.5302734,10.3955078 C40.1884749,10.8831405 39.8193379,11.3183575 39.4228516,11.7011719 C39.2542309,11.8652352 39.0708018,12.0247388 38.8725586,12.1796875 C38.6743154,12.3346362 38.4669607,12.4724929 38.2504883,12.5932617 C38.0340158,12.7140306 37.8084322,12.8120113 37.5737305,12.887207 C37.3390288,12.9624027 37.1009127,13 36.859375,13 L36.859375,13 Z M44.0986328,7.72949219 C44.2307949,7.99381643 44.329915,8.27294775 44.3959961,8.56689453 C44.4620772,8.86084131 44.4951172,9.19238097 44.4951172,9.56152344 C44.4951172,9.83040499 44.4654951,10.1015611 44.40625,10.375 C44.3470049,10.6484389 44.2615565,10.9127591 44.1499023,11.1679688 C44.0382481,11.4231784 43.9015308,11.6624338 43.7397461,11.8857422 C43.5779614,12.1090506 43.393393,12.3027336 43.1860352,12.4667969 C42.9786773,12.6308602 42.7519544,12.7607417 42.5058594,12.8564453 C42.2597644,12.9521489 41.9977227,13 41.7197266,13 C41.3186829,13 40.9757501,12.912273 40.690918,12.7368164 C40.4060858,12.5613598 40.172527,12.3323582 39.9902344,12.0498047 C39.8079418,11.7672512 39.6746423,11.448244 39.590332,11.0927734 C39.5060217,10.7373029 39.4638672,10.3772805 39.4638672,10.0126953 C39.4638672,9.4111298 39.5390617,8.89274306 39.6894531,8.45751953 C39.8398445,8.022296 40.0551744,7.64404458 40.3354492,7.32275391 C40.6157241,7.00146324 40.9586568,6.74853608 41.3642578,6.56396484 C41.7698588,6.37939361 42.2255834,6.28710938 42.7314453,6.28710938 C43.1643902,6.28710938 43.5699851,6.35432875 43.9482422,6.48876953 C44.3264993,6.62321031 44.6808252,6.80322153 45.0112305,7.02880859 C45.3416358,7.25439566 45.6492499,7.53808423 45.934082,7.87988281 C46.2189142,8.2216814 46.4843738,8.54752449 46.7304688,8.85742188 L46.6005859,9.82128906 C46.4775384,9.65722574 46.311199,9.47949314 46.1015625,9.28808594 C45.891926,9.09667873 45.6697603,8.88476679 45.4350586,8.65234375 C45.2003569,8.41992071 44.9690767,8.22281982 44.7412109,8.06103516 C44.5133452,7.89925049 44.3173836,7.76367242 44.1533203,7.65429688 L44.0986328,7.72949219 Z M41.9863281,11.6875 C42.1412768,11.6875 42.2916659,11.6088875 42.4375,11.4516602 C42.5833341,11.2944328 42.710937,11.0961926 42.8203125,10.8569336 C42.929688,10.6176746 43.017415,10.3282895 43.0834961,9.98876953 C43.1495772,9.6492496 43.1826172,9.34733205 43.1826172,9.08300781 C43.1826172,8.87337135 43.1666668,8.67854908 43.1347656,8.49853516 C43.1028644,8.31852124 43.0550133,8.16243556 42.9912109,8.03027344 C42.9274085,7.89811132 42.8453781,7.79329466 42.7451172,7.71582031 C42.6448563,7.63834597 42.5240892,7.59960938 42.3828125,7.59960938 C42.1959626,7.59960938 42.01823,7.67936118 41.8496094,7.83886719 C41.6809887,7.99837319 41.5328782,8.20230996 41.4052734,8.45068359 C41.2776686,8.69905723 41.1774092,8.97363131 41.1044922,9.27441406 C41.0315752,9.57519682 40.9951172,9.91471165 40.9951172,10.2929688 C40.9951172,10.484376 41.0133462,10.6643872 41.0498047,10.8330078 C41.0862632,11.0016284 41.1432288,11.1485996 41.2207031,11.2739258 C41.2981775,11.3992519 41.4007155,11.4995113 41.5283203,11.574707 C41.6559251,11.6499027 41.8085929,11.6875 41.9863281,11.6875 L41.9863281,11.6875 Z" id="Pacifico" fill="#000000" sketch:type="MSShapeGroup"></path>
</svg>
