<svg width="60px" height="12px" viewBox="0 0 60 12" version="1.1" xmlns="http://www.w3.org/2000/svg" xmlns:xlink="http://www.w3.org/1999/xlink" xmlns:sketch="http://www.bohemiancoding.com/sketch/ns">
  <path d="M0.036,0.5 L0.498,0.5 C1.46867152,0.5 2.29466326,0.83366333 2.976,1.501 C3.65733674,2.16833667 3.998,2.95466214 3.998,3.86 C3.998,4.76533786 3.64567019,5.5446634 2.941,6.198 C2.23632981,6.8513366 1.45933758,7.178 0.61,7.178 L0.498,7.178 L0.498,11 L0.036,11 L0.036,0.5 Z M0.498,6.786 L0.61,6.786 C1.39400392,6.786 2.07766375,6.49666956 2.661,5.918 C3.24433625,5.33933044 3.536,4.6533373 3.536,3.86 C3.536,3.0666627 3.23966963,2.37600294 2.647,1.788 C2.05433037,1.19999706 1.37533716,0.906 0.61,0.906 L0.498,0.906 L0.498,6.786 Z M5.244,10.153 C4.59999678,9.48566333 4.278,8.7086711 4.278,7.822 C4.278,6.9353289 4.6046634,6.16766991 5.258,5.519 C5.9113366,4.87033009 6.69766207,4.546 7.617,4.546 C8.53633793,4.546 9.32033009,4.87033009 9.969,5.519 C10.6176699,6.16766991 10.942,6.93766221 10.942,7.829 C10.942,8.72033779 10.6246698,9.49733002 9.99,10.16 C9.35533016,10.82267 8.58533786,11.154 7.68,11.154 L7.554,11.154 C6.65799552,11.154 5.88800322,10.8203367 5.244,10.153 L5.244,10.153 Z M9.647,5.806 C9.08233051,5.22733044 8.40800392,4.938 7.624,4.938 C6.83999608,4.938 6.16100287,5.22966375 5.587,5.813 C5.01299713,6.39633625 4.726,7.07999608 4.726,7.864 C4.726,8.64800392 5.01299713,9.32699713 5.587,9.901 C6.16100287,10.4750029 6.84232939,10.762 7.631,10.762 C8.41967061,10.762 9.0939972,10.4750029 9.654,9.901 C10.2140028,9.32699713 10.494,8.64567061 10.494,7.857 C10.494,7.06832939 10.2116695,6.38466956 9.647,5.806 L9.647,5.806 Z M12.902,4.714 L12.902,11 L12.454,11 L12.454,4.714 L12.902,4.714 Z M12.272,2.796 C12.272,2.54399874 12.407332,2.418 12.678,2.418 C12.948668,2.418 13.084,2.54399874 13.084,2.796 C13.084,3.04800126 12.948668,3.174 12.678,3.174 C12.407332,3.174 12.272,3.04800126 12.272,2.796 L12.272,2.796 Z M17.088,4.938 C16.5933309,4.938 16.1570019,5.1246648 15.779,5.498 C15.4009981,5.8713352 15.212,6.30533086 15.212,6.8 L15.212,11 L14.764,11 L14.764,4.7 L15.212,4.7 L15.212,5.638 C15.3800008,5.32066508 15.6413316,5.05933436 15.996,4.854 C16.3506684,4.64866564 16.7473311,4.546 17.186,4.546 C17.6246689,4.546 18.0446647,4.69533184 18.446,4.994 L18.446,5.554 C18.0353313,5.14333128 17.5826691,4.938 17.088,4.938 L17.088,4.938 Z M22.786,11.168 L22.66,11.168 C21.7733289,11.168 21.0010033,10.8343367 20.343,10.167 C19.6849967,9.49966333 19.356,8.7226711 19.356,7.836 C19.356,6.9493289 19.6826634,6.18166991 20.336,5.533 C20.9893366,4.88433009 21.7966619,4.56 22.758,4.56 C23.7193381,4.56 24.5453299,4.94266284 25.236,5.708 L20.84,10.048 C21.4466697,10.5333358 22.0299972,10.776 22.59,10.776 C23.1500028,10.776 23.6516644,10.647668 24.095,10.391 C24.5383356,10.1343321 24.9046652,9.79133548 25.194,9.362 L25.194,10.076 C24.53133,10.8040036 23.7286714,11.168 22.786,11.168 L22.786,11.168 Z M20.665,5.813 C20.0909971,6.38700287 19.804,7.0473296 19.804,7.794 C19.804,8.5406704 20.0513309,9.1939972 20.546,9.754 L24.62,5.708 C24.0413304,5.20399748 23.3810037,4.952 22.639,4.952 C21.8969963,4.952 21.2390029,5.23899713 20.665,5.813 L20.665,5.813 Z M28.82,10.692 L28.82,11.084 C28.15733,11.084 27.592669,10.8623356 27.126,10.419 C26.659331,9.97566445 26.426,9.40867012 26.426,8.718 L26.426,2.166 L26.874,2.166 L26.874,4.714 L28.806,4.714 L28.806,5.106 L26.874,5.106 L26.874,8.718 C26.874,9.28733618 27.0629981,9.7586648 27.441,10.132 C27.8190019,10.5053352 28.278664,10.692 28.82,10.692 L28.82,10.692 Z M36.219,9.544 C35.1596614,8.45199454 34.63,7.17567397 34.63,5.715 C34.63,4.25432603 35.1666613,2.98967201 36.24,1.921 C37.3133387,0.85232799 38.6013258,0.318 40.104,0.318 C41.6066742,0.318 42.8899947,0.84999468 43.954,1.914 C45.0180053,2.97800532 45.55,4.24499265 45.55,5.715 C45.55,7.18500735 45.0226719,8.46366123 43.968,9.551 C42.9133281,10.6383388 41.6533407,11.182 40.188,11.182 L39.978,11.182 C38.5313261,11.182 37.2783386,10.6360055 36.219,9.544 L36.219,9.544 Z M43.625,2.201 C42.6496618,1.21632841 41.4736736,0.724 40.097,0.724 C38.7203264,0.724 37.5420049,1.21632841 36.562,2.201 C35.5819951,3.18567159 35.092,4.36632645 35.092,5.743 C35.092,7.11967355 35.5819951,8.30266172 36.562,9.292 C37.5420049,10.2813383 38.7179931,10.776 40.09,10.776 C41.4620069,10.776 42.6379951,10.2813383 43.618,9.292 C44.5980049,8.30266172 45.088,7.11967355 45.088,5.743 C45.088,4.36632645 44.6003382,3.18567159 43.625,2.201 L43.625,2.201 Z M47.468,11 L47.02,11 L47.02,4.7 L47.468,4.7 L47.468,5.974 C47.9440024,5.02199524 48.7559943,4.546 49.904,4.546 C50.6880039,4.546 51.3459973,4.81666396 51.878,5.358 C52.4100027,5.89933604 52.676,6.55732946 52.676,7.332 L52.676,11 L52.228,11 L52.228,7.332 C52.228,6.68799678 52.0016689,6.12800238 51.549,5.652 C51.0963311,5.17599762 50.5480032,4.938 49.904,4.938 C49.2599968,4.938 48.6930024,5.17599762 48.203,5.652 C47.7129975,6.12800238 47.468,6.68799678 47.468,7.332 L47.468,11 Z M57.506,11.168 L57.38,11.168 C56.4933289,11.168 55.7210033,10.8343367 55.063,10.167 C54.4049967,9.49966333 54.076,8.7226711 54.076,7.836 C54.076,6.9493289 54.4026634,6.18166991 55.056,5.533 C55.7093366,4.88433009 56.5166619,4.56 57.478,4.56 C58.4393381,4.56 59.2653299,4.94266284 59.956,5.708 L55.56,10.048 C56.1666697,10.5333358 56.7499972,10.776 57.31,10.776 C57.8700028,10.776 58.3716645,10.647668 58.815,10.391 C59.2583356,10.1343321 59.6246652,9.79133548 59.914,9.362 L59.914,10.076 C59.25133,10.8040036 58.4486714,11.168 57.506,11.168 L57.506,11.168 Z M55.385,5.813 C54.8109971,6.38700287 54.524,7.0473296 54.524,7.794 C54.524,8.5406704 54.7713309,9.1939972 55.266,9.754 L59.34,5.708 C58.7613304,5.20399748 58.1010037,4.952 57.359,4.952 C56.6169963,4.952 55.9590029,5.23899713 55.385,5.813 L55.385,5.813 Z" id="Poiret-One" fill="#000000" sketch:type="MSShapeGroup"></path>
</svg>