<svg width="72px" height="12px" viewBox="0 0 72 12" version="1.1" xmlns="http://www.w3.org/2000/svg" xmlns:xlink="http://www.w3.org/1999/xlink" xmlns:sketch="http://www.bohemiancoding.com/sketch/ns">
  <path d="M11.256,10.686 C11.13,10.532 10.92,10.518 10.766,10.63 C10.108,11.134 9.534,11.33 8.988,11.33 C8.302,11.33 7.602,11.036 6.888,10.602 C6.622,10.448 6.314,10.35 6.034,10.294 L7.448,9.636 C9.142,8.866 10.332,7.102 10.332,5.044 C10.332,2.314 8.246,0.074 5.628,0.06 C3.01,0.074 0.924,2.314 0.924,5.044 C0.924,7.55 2.688,9.664 5.012,9.986 L3.71,10.574 C3.542,10.658 3.472,10.868 3.556,11.036 C3.57,11.092 3.612,11.134 3.654,11.19 L3.668,11.19 C3.794,11.274 3.92,11.288 4.06,11.218 L4.074,11.218 C4.172,11.134 4.732,10.91 5.376,10.91 C5.74,10.91 6.132,10.98 6.552,11.218 C7.294,11.652 8.092,12.016 8.988,12.016 L9.002,12.016 C9.702,12.016 10.444,11.778 11.214,11.19 C11.354,11.064 11.368,10.84 11.256,10.686 L11.256,10.686 Z M1.624,5.044 C1.624,2.65 3.444,0.774 5.628,0.774 C7.812,0.774 9.632,2.65 9.632,5.044 C9.632,7.424 7.812,9.328 5.628,9.328 C3.444,9.328 1.624,7.424 1.624,5.044 L1.624,5.044 Z M12.978,7.2 C12.978,8.74 14.21,10 15.75,10 C17.318,10 18.564,8.74 18.564,7.2 L18.564,3.462 C18.564,3.266 18.41,3.126 18.214,3.126 C18.046,3.126 17.878,3.266 17.878,3.462 L17.878,7.2 C17.878,8.376 16.926,9.314 15.75,9.328 C14.588,9.314 13.65,8.376 13.65,7.2 L13.65,3.462 C13.65,3.266 13.496,3.126 13.314,3.126 C13.132,3.126 12.978,3.266 12.978,3.462 L12.978,7.2 Z M21.714,9.664 C21.714,9.846 21.868,10 22.05,10 C22.246,10 22.4,9.846 22.4,9.664 L22.4,3.476 C22.4,3.28 22.246,3.14 22.05,3.14 C21.868,3.14 21.714,3.28 21.714,3.476 L21.714,9.664 Z M21.714,1.558 C21.714,1.754 21.868,1.922 22.05,1.922 C22.246,1.922 22.4,1.754 22.4,1.558 L22.4,1.236 C22.4,1.054 22.246,0.9 22.05,0.9 C21.868,0.9 21.714,1.054 21.714,1.236 L21.714,1.558 Z M28.672,10 L28.672,10 C29.484,10 30.254,9.72 30.828,9.272 C30.996,9.146 31.024,8.936 30.898,8.782 C30.786,8.656 30.59,8.614 30.436,8.726 L30.436,8.726 C29.946,9.104 29.33,9.328 28.672,9.328 C27.076,9.328 25.816,8.096 25.816,6.556 C25.816,5.044 27.076,3.798 28.672,3.798 C29.33,3.798 29.946,4.022 30.436,4.414 C30.59,4.526 30.786,4.484 30.898,4.358 C31.024,4.204 30.996,3.994 30.856,3.896 C30.254,3.42 29.484,3.14 28.672,3.14 C26.712,3.14 25.144,4.652 25.144,6.556 C25.144,8.488 26.712,10 28.672,10 L28.672,10 Z M33.628,9.664 C33.628,9.846 33.782,10 33.964,10 C34.16,10 34.314,9.846 34.314,9.664 L34.314,8.096 L35.714,6.696 L38.346,9.874 C38.402,9.972 38.514,10 38.612,10 C38.682,10 38.766,9.986 38.836,9.93 C38.976,9.79 38.99,9.594 38.864,9.44 L36.204,6.206 L38.85,3.56 C38.99,3.42 38.99,3.21 38.85,3.084 C38.71,2.944 38.514,2.944 38.374,3.084 L34.314,7.13 L34.314,0.536 C34.314,0.354 34.16,0.2 33.964,0.2 C33.782,0.2 33.628,0.354 33.628,0.536 L33.628,9.664 Z M41.034,9.02 C41.594,9.468 42.462,9.986 43.568,10 C44.24,10 44.8,9.804 45.276,9.454 C45.738,9.104 46.06,8.642 46.06,8.068 C46.06,7.494 45.738,6.962 45.29,6.668 C44.814,6.402 44.282,6.206 43.624,6.108 L43.596,6.108 C42.966,6.01 42.504,5.842 42.196,5.632 C41.93,5.422 41.804,5.226 41.804,4.946 C41.804,4.666 41.958,4.386 42.238,4.162 C42.532,3.924 42.98,3.77 43.54,3.77 C44.212,3.77 44.716,4.12 45.22,4.456 C45.374,4.554 45.584,4.512 45.682,4.358 C45.78,4.204 45.738,3.994 45.584,3.882 C45.052,3.546 44.422,3.14 43.54,3.14 C42.84,3.14 42.266,3.322 41.86,3.602 C41.426,3.924 41.118,4.4 41.118,4.946 C41.118,5.478 41.426,5.926 41.86,6.178 C42.252,6.458 42.798,6.598 43.414,6.71 L43.442,6.724 C44.114,6.836 44.604,7.004 44.898,7.228 C45.248,7.522 45.374,7.746 45.388,8.068 C45.388,8.376 45.206,8.684 44.87,8.908 C44.562,9.16 44.1,9.328 43.568,9.328 C42.7,9.328 41.944,8.88 41.468,8.53 C41.314,8.404 41.104,8.432 40.992,8.572 C40.88,8.712 40.894,8.894 41.034,9.02 L41.034,9.02 Z M53.774,3.14 C53.592,3.14 53.438,3.28 53.438,3.476 L53.438,4.484 C52.85,3.672 51.912,3.14 50.862,3.14 C49.056,3.14 47.614,4.694 47.614,6.57 C47.614,8.446 49.056,10 50.862,10 C51.912,10 52.85,9.454 53.438,8.642 L53.438,9.664 C53.438,9.846 53.592,10 53.774,10 C53.956,10 54.11,9.846 54.11,9.664 L54.11,3.476 C54.11,3.28 53.956,3.14 53.774,3.14 L53.774,3.14 Z M50.862,9.328 C49.462,9.328 48.286,8.11 48.286,6.57 C48.286,5.03 49.462,3.798 50.862,3.798 C52.276,3.798 53.438,5.03 53.438,6.57 C53.438,8.11 52.276,9.328 50.862,9.328 L50.862,9.328 Z M61.782,9.664 C61.782,9.86 61.936,10 62.118,10 C62.3,10 62.454,9.86 62.454,9.664 L62.454,5.94 C62.454,4.414 61.208,3.154 59.668,3.154 C58.814,3.154 58.044,3.546 57.54,4.148 L57.54,3.49 C57.54,3.308 57.4,3.154 57.218,3.154 C57.022,3.154 56.882,3.308 56.882,3.49 L56.882,5.828 L56.882,5.94 L56.882,9.664 L56.882,9.748 C56.882,9.748 56.896,9.762 56.896,9.776 C56.896,9.79 56.896,9.804 56.91,9.818 C56.952,9.902 57.036,9.972 57.134,10 L57.218,10 C57.316,10 57.414,9.958 57.47,9.874 C57.512,9.832 57.526,9.776 57.54,9.72 L57.54,9.664 L57.54,5.94 C57.568,4.778 58.506,3.826 59.668,3.826 C60.844,3.826 61.782,4.778 61.782,5.94 L61.782,9.664 Z M70.672,9.664 C70.672,9.846 70.826,10 71.022,10 C71.204,10 71.358,9.846 71.358,9.664 L71.358,6.584 L71.358,6.444 L71.358,0.536 C71.358,0.354 71.204,0.2 71.022,0.2 C70.826,0.2 70.672,0.354 70.672,0.536 L70.672,4.484 C70.07,3.672 69.118,3.14 68.04,3.14 C66.192,3.14 64.722,4.68 64.722,6.584 C64.722,8.46 66.192,10 68.04,10 C69.118,10 70.07,9.482 70.672,8.67 L70.672,9.664 Z M68.04,9.314 C66.598,9.314 65.408,8.096 65.408,6.584 C65.408,5.058 66.598,3.826 68.04,3.826 C69.454,3.826 70.616,5.002 70.672,6.472 L70.672,6.696 C70.616,8.152 69.454,9.314 68.04,9.314 L68.04,9.314 Z" id="Quicksand" fill="#000000" sketch:type="MSShapeGroup"></path>
</svg>
