<svg width="54px" height="15px" viewBox="0 0 54 15" version="1.1" xmlns="http://www.w3.org/2000/svg" xmlns:xlink="http://www.w3.org/1999/xlink" xmlns:sketch="http://www.bohemiancoding.com/sketch/ns">
  <path d="M0.246,11 L0.246,1.06 L4.446,1.06 C4.87533548,1.06 5.26966487,1.15099909 5.629,1.333 C5.98833513,1.51500091 6.29866536,1.75299853 6.56,2.047 C6.82133464,2.34100147 7.02433261,2.6746648 7.169,3.048 C7.31366739,3.4213352 7.386,3.79933142 7.386,4.182 C7.386,4.54600182 7.33233387,4.89366501 7.225,5.225 C7.11766613,5.55633499 6.96833429,5.85499867 6.777,6.121 C6.58566571,6.38700133 6.35466802,6.61099909 6.084,6.793 C5.81333198,6.97500091 5.51000168,7.09866634 5.174,7.164 L7.61,11 L6.504,11 L4.166,7.332 L1.226,7.332 L1.226,11 L0.246,11 Z M1.226,6.464 L4.474,6.464 C4.76333478,6.464 5.02699881,6.40100063 5.265,6.275 C5.50300119,6.14899937 5.70599916,5.97866774 5.874,5.764 C6.04200084,5.54933226 6.1726662,5.30666802 6.266,5.036 C6.3593338,4.76533198 6.406,4.48066816 6.406,4.182 C6.406,3.88333184 6.35233387,3.59633471 6.245,3.321 C6.13766613,3.04566529 5.99300091,2.80533436 5.811,2.6 C5.62899909,2.39466564 5.41433457,2.23133394 5.167,2.11 C4.91966543,1.98866606 4.66066802,1.928 4.39,1.928 L1.226,1.928 L1.226,6.464 Z M10.928,11.14 C10.5826649,11.14 10.2630015,11.0816673 9.969,10.965 C9.67499853,10.8483328 9.41833443,10.6873344 9.199,10.482 C8.97966557,10.2766656 8.80933394,10.0363347 8.688,9.761 C8.56666606,9.48566529 8.506,9.18933492 8.506,8.872 C8.506,8.55466508 8.58066592,8.26066802 8.73,7.99 C8.87933408,7.71933198 9.08933198,7.48600098 9.36,7.29 C9.63066802,7.09399902 9.9526648,6.94233387 10.326,6.835 C10.6993352,6.72766613 11.1099978,6.674 11.558,6.674 C11.9313352,6.674 12.3093314,6.70666634 12.692,6.772 C13.0746686,6.83733366 13.4153318,6.93066606 13.714,7.052 L13.714,6.394 C13.714,5.74999678 13.5320018,5.23900189 13.168,4.861 C12.8039982,4.48299811 12.3000032,4.294 11.656,4.294 C11.2826648,4.294 10.900002,4.36866592 10.508,4.518 C10.115998,4.66733408 9.71933534,4.8819986 9.318,5.162 L8.982,4.532 C9.92467138,3.89733016 10.8393289,3.58 11.726,3.58 C12.6406712,3.58 13.3593307,3.8366641 13.882,4.35 C14.4046693,4.8633359 14.666,5.57266214 14.666,6.478 L14.666,9.768 C14.666,10.0293346 14.7826655,10.16 15.016,10.16 L15.016,11 C14.8573325,11.0280001 14.7360004,11.042 14.652,11.042 C14.4093321,11.042 14.220334,10.9813339 14.085,10.86 C13.949666,10.7386661 13.8773334,10.5706677 13.868,10.356 L13.84,9.782 C13.5039983,10.2206689 13.0816692,10.5566655 12.573,10.79 C12.0643308,11.0233345 11.5160029,11.14 10.928,11.14 L10.928,11.14 Z M11.152,10.412 C11.6466691,10.412 12.1016646,10.3186676 12.517,10.132 C12.9323354,9.9453324 13.2473323,9.69800154 13.462,9.39 C13.5460004,9.30599958 13.6089998,9.21500049 13.651,9.117 C13.6930002,9.01899951 13.714,8.92800042 13.714,8.844 L13.714,7.654 C13.3966651,7.53266606 13.0676684,7.43933366 12.727,7.374 C12.3863316,7.30866634 12.0386684,7.276 11.684,7.276 C11.0119966,7.276 10.4660021,7.4159986 10.046,7.696 C9.6259979,7.9760014 9.416,8.34466438 9.416,8.802 C9.416,9.02600112 9.46033289,9.23599902 9.549,9.432 C9.63766711,9.62800098 9.75899923,9.79833261 9.913,9.943 C10.0670008,10.0876674 10.2513323,10.2019996 10.466,10.286 C10.6806677,10.3700004 10.9093321,10.412 11.152,10.412 L11.152,10.412 Z M16.766,0.78 L17.718,0.78 L17.718,9.348 C17.718,9.61866802 17.7926659,9.83099923 17.942,9.985 C18.0913341,10.1390008 18.301332,10.216 18.572,10.216 C18.6746672,10.216 18.7959993,10.2020001 18.936,10.174 C19.0760007,10.1459999 19.2066661,10.1086669 19.328,10.062 L19.496,10.832 C19.3186658,10.906667 19.101668,10.9673331 18.845,11.014 C18.588332,11.0606669 18.3666676,11.084 18.18,11.084 C17.7413311,11.084 17.3960013,10.9603346 17.144,10.713 C16.8919987,10.4656654 16.766,10.1180022 16.766,9.67 L16.766,0.78 Z M23.682,11.14 C23.1499973,11.14 22.6623356,11.0396677 22.219,10.839 C21.7756645,10.6383323 21.3906683,10.3630017 21.064,10.013 C20.7373317,9.66299825 20.4830009,9.25933562 20.301,8.802 C20.1189991,8.34466438 20.028,7.85466928 20.028,7.332 C20.028,6.8186641 20.1189991,6.33566893 20.301,5.883 C20.4830009,5.43033107 20.7349984,5.03366837 21.057,4.693 C21.3790016,4.35233163 21.7639978,4.08166767 22.212,3.881 C22.6600022,3.68033233 23.1453307,3.58 23.668,3.58 C24.2000027,3.58 24.6876645,3.68033233 25.131,3.881 C25.5743355,4.08166767 25.9546651,4.35466494 26.272,4.7 C26.5893349,5.04533506 26.8366658,5.44199776 27.014,5.89 C27.1913342,6.33800224 27.28,6.81399748 27.28,7.318 L27.28,7.542 C27.28,7.61666704 27.2753334,7.66799986 27.266,7.696 L21.022,7.696 C21.0500001,8.08800196 21.1409992,8.44966501 21.295,8.781 C21.4490008,9.11233499 21.6473321,9.39933212 21.89,9.642 C22.1326679,9.88466788 22.4103318,10.073666 22.723,10.209 C23.0356682,10.344334 23.3693316,10.412 23.724,10.412 C23.9573345,10.412 24.1906655,10.3793337 24.424,10.314 C24.6573345,10.2486663 24.871999,10.1600006 25.068,10.048 C25.264001,9.93599944 25.4413325,9.79833415 25.6,9.635 C25.7586675,9.47166585 25.8799996,9.29200098 25.964,9.096 L26.79,9.32 C26.6779994,9.59066802 26.5193344,9.83566557 26.314,10.055 C26.1086656,10.2743344 25.870668,10.4656659 25.6,10.629 C25.329332,10.7923341 25.0306683,10.9183329 24.704,11.007 C24.3773317,11.0956671 24.0366684,11.14 23.682,11.14 L23.682,11.14 Z M26.37,6.968 C26.3419999,6.57599804 26.2510008,6.21900161 26.097,5.897 C25.9429992,5.57499839 25.7470012,5.2973345 25.509,5.064 C25.2709988,4.8306655 24.9956682,4.64866732 24.683,4.518 C24.3703318,4.38733268 24.0366684,4.322 23.682,4.322 C23.3273316,4.322 22.9913349,4.38733268 22.674,4.518 C22.3566651,4.64866732 22.0790012,4.8306655 21.841,5.064 C21.6029988,5.2973345 21.4116674,5.5773317 21.267,5.904 C21.1223326,6.2306683 21.0360001,6.58533142 21.008,6.968 L26.37,6.968 Z M37.738,3.706 L38.676,3.706 L35.54,11 L34.756,11 L33.188,7.276 L31.634,11 L30.85,11 L27.714,3.706 L28.638,3.706 L31.298,10.02 L32.684,6.688 L31.438,3.72 L32.236,3.72 L33.188,6.1 L34.14,3.72 L34.952,3.72 L33.706,6.688 L35.092,10.02 L37.738,3.706 Z M41.588,11.14 C41.2426649,11.14 40.9230015,11.0816673 40.629,10.965 C40.3349985,10.8483328 40.0783344,10.6873344 39.859,10.482 C39.6396656,10.2766656 39.4693339,10.0363347 39.348,9.761 C39.2266661,9.48566529 39.166,9.18933492 39.166,8.872 C39.166,8.55466508 39.2406659,8.26066802 39.39,7.99 C39.5393341,7.71933198 39.749332,7.48600098 40.02,7.29 C40.290668,7.09399902 40.6126648,6.94233387 40.986,6.835 C41.3593352,6.72766613 41.7699978,6.674 42.218,6.674 C42.5913352,6.674 42.9693314,6.70666634 43.352,6.772 C43.7346686,6.83733366 44.0753318,6.93066606 44.374,7.052 L44.374,6.394 C44.374,5.74999678 44.1920018,5.23900189 43.828,4.861 C43.4639982,4.48299811 42.9600032,4.294 42.316,4.294 C41.9426648,4.294 41.560002,4.36866592 41.168,4.518 C40.775998,4.66733408 40.3793353,4.8819986 39.978,5.162 L39.642,4.532 C40.5846714,3.89733016 41.4993289,3.58 42.386,3.58 C43.3006712,3.58 44.0193307,3.8366641 44.542,4.35 C45.0646693,4.8633359 45.326,5.57266214 45.326,6.478 L45.326,9.768 C45.326,10.0293346 45.4426655,10.16 45.676,10.16 L45.676,11 C45.5173325,11.0280001 45.3960004,11.042 45.312,11.042 C45.0693321,11.042 44.880334,10.9813339 44.745,10.86 C44.609666,10.7386661 44.5373334,10.5706677 44.528,10.356 L44.5,9.782 C44.1639983,10.2206689 43.7416692,10.5566655 43.233,10.79 C42.7243308,11.0233345 42.1760029,11.14 41.588,11.14 L41.588,11.14 Z M41.812,10.412 C42.3066691,10.412 42.7616646,10.3186676 43.177,10.132 C43.5923354,9.9453324 43.9073323,9.69800154 44.122,9.39 C44.2060004,9.30599958 44.2689998,9.21500049 44.311,9.117 C44.3530002,9.01899951 44.374,8.92800042 44.374,8.844 L44.374,7.654 C44.0566651,7.53266606 43.7276684,7.43933366 43.387,7.374 C43.0463316,7.30866634 42.6986684,7.276 42.344,7.276 C41.6719966,7.276 41.1260021,7.4159986 40.706,7.696 C40.2859979,7.9760014 40.076,8.34466438 40.076,8.802 C40.076,9.02600112 40.1203329,9.23599902 40.209,9.432 C40.2976671,9.62800098 40.4189992,9.79833261 40.573,9.943 C40.7270008,10.0876674 40.9113323,10.2019996 41.126,10.286 C41.3406677,10.3700004 41.5693321,10.412 41.812,10.412 L41.812,10.412 Z M47.622,13.24 C47.696667,13.2493334 47.7689997,13.2563333 47.839,13.261 C47.9090004,13.2656667 47.9766663,13.268 48.042,13.268 C48.2100008,13.268 48.3429995,13.2446669 48.441,13.198 C48.5390005,13.1513331 48.6346662,13.0486675 48.728,12.89 C48.8213338,12.7313325 48.9263328,12.5026682 49.043,12.204 C49.1596672,11.9053318 49.3253323,11.5040025 49.54,11 L46.362,3.706 L47.342,3.706 L50.044,10.118 L52.55,3.706 L53.46,3.706 L49.68,13.114 C49.5773328,13.384668 49.4070012,13.6203323 49.169,13.821 C48.9309988,14.0216677 48.6066687,14.122 48.196,14.122 C48.1026662,14.122 48.0140004,14.1196667 47.93,14.115 C47.8459996,14.1103333 47.7433339,14.0986668 47.622,14.08 L47.622,13.24 Z" id="Raleway" fill="#000000" sketch:type="MSShapeGroup"></path>
</svg>
