<svg width="78px" height="12px" viewBox="0 0 78 12" version="1.1" xmlns="http://www.w3.org/2000/svg" xmlns:xlink="http://www.w3.org/1999/xlink" xmlns:sketch="http://www.bohemiancoding.com/sketch/ns">
  <path d="M4.85351562,1.05371094 C5.93815646,1.05371094 6.76985388,1.29410567 7.34863281,1.77490234 C7.92741175,2.25569902 8.21679688,2.93814662 8.21679688,3.82226562 C8.21679688,4.30534096 8.08235812,4.73372209 7.81347656,5.10742188 C7.54459501,5.48112166 7.15950771,5.77506403 6.65820312,5.98925781 C7.20052354,6.16699308 7.5913074,6.4563782 7.83056641,6.85742188 C8.06982542,7.25846555 8.18945312,7.75292675 8.18945312,8.34082031 L8.18945312,9.140625 C8.18945312,9.44596507 8.22818972,9.67154875 8.30566406,9.81738281 C8.38313841,9.96321687 8.5107413,10.0498046 8.68847656,10.0771484 L9.01660156,10.1181641 L9.01660156,11 L8.29199219,11 C7.76790103,11 7.39534616,10.8177102 7.17431641,10.453125 C6.95328666,10.0885398 6.84277344,9.64648697 6.84277344,9.12695312 L6.84277344,8.35449219 C6.84277344,7.81217177 6.68554845,7.37695477 6.37109375,7.04882812 C6.05663905,6.72070148 5.63509379,6.55664062 5.10644531,6.55664062 L2.94628906,6.55664062 L2.94628906,9.94726562 L4.06054688,10.1386719 L4.06054688,11 L0.485351562,11 L0.485351562,10.1386719 L1.59960938,9.94726562 L1.59960938,2.10644531 L0.485351562,1.91503906 L0.485351562,1.05371094 L1.59960938,1.05371094 L4.85351562,1.05371094 Z M2.94628906,5.49707031 L4.71679688,5.49707031 C5.46875376,5.49707031 6.01562329,5.35351706 6.35742188,5.06640625 C6.69922046,4.77929544 6.87011719,4.3600288 6.87011719,3.80859375 C6.87011719,3.28450259 6.70605633,2.86979319 6.37792969,2.56445312 C6.04980305,2.25911306 5.54167011,2.10644531 4.85351562,2.10644531 L2.94628906,2.10644531 L2.94628906,5.49707031 Z M10.0898438,7.23339844 C10.0898438,6.13964297 10.3860647,5.23844755 10.9785156,4.52978516 C11.5709665,3.82112276 12.3753204,3.46679688 13.3916016,3.46679688 C14.41244,3.46679688 15.2202119,3.81998345 15.8149414,4.52636719 C16.4096709,5.23275093 16.7070312,6.13508565 16.7070312,7.23339844 L16.7070312,7.38378906 C16.7070312,8.48665916 16.4108103,9.38899389 15.8183594,10.0908203 C15.2259085,10.7926467 14.4215546,11.1435547 13.4052734,11.1435547 C12.3798777,11.1435547 11.5709665,10.7915074 10.9785156,10.0874023 C10.3860647,9.38329726 10.0898438,8.48210185 10.0898438,7.38378906 L10.0898438,7.23339844 Z M11.4365234,7.38378906 C11.4365234,8.16764715 11.6017236,8.81477609 11.9321289,9.32519531 C12.2625342,9.83561453 12.7535775,10.0908203 13.4052734,10.0908203 C14.0432975,10.0908203 14.5286442,9.83561453 14.8613281,9.32519531 C15.1940121,8.81477609 15.3603516,8.16764715 15.3603516,7.38378906 L15.3603516,7.23339844 C15.3603516,6.45865498 15.1940121,5.81380466 14.8613281,5.29882812 C14.5286442,4.78385159 14.0387402,4.52636719 13.3916016,4.52636719 C12.7444629,4.52636719 12.2568376,4.78385159 11.9287109,5.29882812 C11.6005843,5.81380466 11.4365234,6.45865498 11.4365234,7.23339844 L11.4365234,7.38378906 Z M24.7050781,7.58203125 C24.7050781,8.64844283 24.448733,9.50862303 23.9360352,10.1625977 C23.4233373,10.8165723 22.7181034,11.1435547 21.8203125,11.1435547 C21.3372372,11.1435547 20.9179705,11.0512705 20.5625,10.8666992 C20.2070295,10.682128 19.9108085,10.4098325 19.6738281,10.0498047 L19.5507812,11 L18.3886719,11 L18.3886719,1.39550781 L17.2744141,1.20410156 L17.2744141,0.3359375 L19.7353516,0.3359375 L19.7353516,4.47851562 C19.9677746,4.15038898 20.2560204,3.89974045 20.6000977,3.7265625 C20.9441749,3.55338455 21.3463519,3.46679688 21.8066406,3.46679688 C22.7181035,3.46679688 23.4290339,3.83137656 23.9394531,4.56054688 C24.4498723,5.28971719 24.7050781,6.24901749 24.7050781,7.43847656 L24.7050781,7.58203125 Z M23.3515625,7.43847656 C23.3515625,6.58625876 23.1966161,5.89355735 22.8867188,5.36035156 C22.5768214,4.82714577 22.1028678,4.56054688 21.4648438,4.56054688 C21.0501281,4.56054688 20.7003595,4.66080629 20.4155273,4.86132812 C20.1306952,5.06184996 19.9039722,5.33072748 19.7353516,5.66796875 L19.7353516,8.93554688 C19.9039722,9.27734546 20.1329738,9.5485016 20.4223633,9.74902344 C20.7117527,9.94954527 21.0638,10.0498047 21.4785156,10.0498047 C22.1119823,10.0498047 22.582518,9.82422101 22.8901367,9.37304688 C23.1977554,8.92187274 23.3515625,8.32487351 23.3515625,7.58203125 L23.3515625,7.43847656 Z M26.0517578,7.23339844 C26.0517578,6.13964297 26.3479788,5.23844755 26.9404297,4.52978516 C27.5328806,3.82112276 28.3372345,3.46679688 29.3535156,3.46679688 C30.3743541,3.46679688 31.1821259,3.81998345 31.7768555,4.52636719 C32.371585,5.23275093 32.6689453,6.13508565 32.6689453,7.23339844 L32.6689453,7.38378906 C32.6689453,8.48665916 32.3727243,9.38899389 31.7802734,10.0908203 C31.1878226,10.7926467 30.3834686,11.1435547 29.3671875,11.1435547 C28.3417917,11.1435547 27.5328806,10.7915074 26.9404297,10.0874023 C26.3479788,9.38329726 26.0517578,8.48210185 26.0517578,7.38378906 L26.0517578,7.23339844 Z M27.3984375,7.38378906 C27.3984375,8.16764715 27.5636377,8.81477609 27.894043,9.32519531 C28.2244483,9.83561453 28.7154915,10.0908203 29.3671875,10.0908203 C30.0052115,10.0908203 30.4905582,9.83561453 30.8232422,9.32519531 C31.1559261,8.81477609 31.3222656,8.16764715 31.3222656,7.38378906 L31.3222656,7.23339844 C31.3222656,6.45865498 31.1559261,5.81380466 30.8232422,5.29882812 C30.4905582,4.78385159 30.0006543,4.52636719 29.3535156,4.52636719 C28.706377,4.52636719 28.2187516,4.78385159 27.890625,5.29882812 C27.5624984,5.81380466 27.3984375,6.45865498 27.3984375,7.23339844 L27.3984375,7.38378906 Z M36.2509766,1.81933594 L36.2509766,3.60351562 L37.6523438,3.60351562 L37.6523438,4.6015625 L36.2509766,4.6015625 L36.2509766,9.09277344 C36.2509766,9.43912934 36.3227532,9.682942 36.4663086,9.82421875 C36.609864,9.9654955 36.800129,10.0361328 37.0371094,10.0361328 C37.1555996,10.0361328 37.288899,10.025879 37.4370117,10.0053711 C37.5851244,9.98486318 37.7093094,9.96321626 37.8095703,9.94042969 L37.9941406,10.8632812 C37.8665358,10.9453129 37.6796887,11.0125323 37.4335938,11.0649414 C37.1874988,11.1173505 36.9414075,11.1435547 36.6953125,11.1435547 C36.1484348,11.1435547 35.7132178,10.9783545 35.3896484,10.6479492 C35.0660791,10.3175439 34.9042969,9.79915718 34.9042969,9.09277344 L34.9042969,4.6015625 L33.7353516,4.6015625 L33.7353516,3.60351562 L34.9042969,3.60351562 L34.9042969,1.81933594 L36.2509766,1.81933594 Z M38.8964844,7.23339844 C38.8964844,6.13964297 39.1927054,5.23844755 39.7851562,4.52978516 C40.3776071,3.82112276 41.1819611,3.46679688 42.1982422,3.46679688 C43.2190806,3.46679688 44.0268525,3.81998345 44.621582,4.52636719 C45.2163116,5.23275093 45.5136719,6.13508565 45.5136719,7.23339844 L45.5136719,7.38378906 C45.5136719,8.48665916 45.2174509,9.38899389 44.625,10.0908203 C44.0325491,10.7926467 43.2281952,11.1435547 42.2119141,11.1435547 C41.1865183,11.1435547 40.3776071,10.7915074 39.7851562,10.0874023 C39.1927054,9.38329726 38.8964844,8.48210185 38.8964844,7.38378906 L38.8964844,7.23339844 Z M40.2431641,7.38378906 C40.2431641,8.16764715 40.4083642,8.81477609 40.7387695,9.32519531 C41.0691748,9.83561453 41.5602181,10.0908203 42.2119141,10.0908203 C42.8499381,10.0908203 43.3352848,9.83561453 43.6679688,9.32519531 C44.0006527,8.81477609 44.1669922,8.16764715 44.1669922,7.38378906 L44.1669922,7.23339844 C44.1669922,6.45865498 44.0006527,5.81380466 43.6679688,5.29882812 C43.3352848,4.78385159 42.8453808,4.52636719 42.1982422,4.52636719 C41.5511035,4.52636719 41.0634782,4.78385159 40.7353516,5.29882812 C40.4072249,5.81380466 40.2431641,6.45865498 40.2431641,7.23339844 L40.2431641,7.38378906 Z M57.3056641,3.98632812 L56.2871094,3.98632812 L56.0341797,2.56445312 C55.8291005,2.39127518 55.5556658,2.24772192 55.2138672,2.13378906 C54.8720686,2.0198562 54.4755882,1.96289062 54.0244141,1.96289062 C53.3089157,1.96289062 52.7597675,2.11441906 52.3769531,2.41748047 C51.9941387,2.72054188 51.8027344,3.11588298 51.8027344,3.60351562 C51.8027344,4.0364605 51.9975566,4.39762225 52.387207,4.68701172 C52.7768574,4.97640119 53.4068967,5.23046766 54.2773438,5.44921875 C55.3255261,5.70898567 56.1219048,6.09179435 56.6665039,6.59765625 C57.211103,7.10351815 57.4833984,7.73013949 57.4833984,8.47753906 C57.4833984,9.27962641 57.156416,9.92447673 56.5024414,10.4121094 C55.8484668,10.899742 54.9928438,11.1435547 53.9355469,11.1435547 C53.169918,11.1435547 52.4897491,11.0182304 51.8950195,10.7675781 C51.30029,10.5169258 50.8160826,10.1888041 50.4423828,9.78320312 L50.4423828,7.93066406 L51.4541016,7.93066406 L51.7138672,9.359375 C51.9736341,9.57356878 52.2835268,9.74902275 52.6435547,9.88574219 C53.0035825,10.0224616 53.4342423,10.0908203 53.9355469,10.0908203 C54.6145867,10.0908203 55.1512025,9.94726706 55.5454102,9.66015625 C55.9396179,9.37304544 56.1367188,8.9834009 56.1367188,8.49121094 C56.1367188,8.03547949 55.965822,7.65381013 55.6240234,7.34619141 C55.2822249,7.03857268 54.6783897,6.77994896 53.8125,6.5703125 C52.7597604,6.31966021 51.9371774,5.95052327 51.3447266,5.46289062 C50.7522757,4.97525798 50.4560547,4.36230838 50.4560547,3.62402344 C50.4560547,2.84472267 50.786455,2.19645441 51.4472656,1.67919922 C52.1080762,1.16194403 52.9671171,0.903320312 54.0244141,0.903320312 C54.7216832,0.903320312 55.3562797,1.02294802 55.9282227,1.26220703 C56.5001656,1.50146604 56.9593082,1.79199048 57.3056641,2.13378906 L57.3056641,3.98632812 Z M58.5634766,1.20410156 L58.5634766,0.3359375 L61.0244141,0.3359375 L61.0244141,9.94726562 L62.1386719,10.1386719 L62.1386719,11 L58.5634766,11 L58.5634766,10.1386719 L59.6777344,9.94726562 L59.6777344,1.39550781 L58.5634766,1.20410156 Z M67.9833984,11 C67.9423826,10.7994782 67.9104819,10.6194669 67.8876953,10.4599609 C67.8649087,10.3004549 67.8489584,10.1409513 67.8398438,9.98144531 C67.5800768,10.3141293 67.255373,10.590982 66.8657227,10.8120117 C66.4760723,11.0330415 66.0602236,11.1435547 65.6181641,11.1435547 C64.8479779,11.1435547 64.2623718,10.9555683 63.8613281,10.5795898 C63.4602845,10.2036114 63.2597656,9.67383154 63.2597656,8.99023438 C63.2597656,8.28840795 63.5434542,7.74723498 64.1108398,7.36669922 C64.6782255,6.98616346 65.4563753,6.79589844 66.4453125,6.79589844 L67.8330078,6.79589844 L67.8330078,5.93457031 C67.8330078,5.50162544 67.6962904,5.15869267 67.4228516,4.90576172 C67.1494127,4.65283077 66.7688826,4.52636719 66.28125,4.52636719 C65.9440087,4.52636719 65.6466484,4.56966103 65.3891602,4.65625 C65.1316719,4.74283897 64.9231779,4.86132737 64.7636719,5.01171875 L64.6201172,5.79101562 L63.5810547,5.79101562 L63.5810547,4.35546875 C63.918296,4.0865872 64.3261695,3.87125732 64.8046875,3.70947266 C65.2832055,3.54768799 65.8027316,3.46679688 66.3632812,3.46679688 C67.2018271,3.46679688 67.8808568,3.68098744 68.4003906,4.109375 C68.9199245,4.53776256 69.1796875,5.15071216 69.1796875,5.94824219 L69.1796875,9.50976562 C69.1796875,9.60546923 69.1808268,9.69889277 69.1831055,9.79003906 C69.1853841,9.88118535 69.1910807,9.97233027 69.2001953,10.0634766 L69.7470703,10.1386719 L69.7470703,11 L67.9833984,11 Z M65.8164062,10.015625 C66.2630231,10.015625 66.6708966,9.90852972 67.0400391,9.69433594 C67.4091815,9.48014216 67.6735018,9.22265775 67.8330078,8.921875 L67.8330078,7.70507812 L66.3974609,7.70507812 C65.8460259,7.70507812 65.4096696,7.83268102 65.0883789,8.08789062 C64.7670882,8.34310023 64.6064453,8.65299297 64.6064453,9.01757812 C64.6064453,9.34114745 64.7067047,9.58837805 64.9072266,9.75927734 C65.1077484,9.93017664 65.4108053,10.015625 65.8164062,10.015625 L65.8164062,10.015625 Z M77.6357422,7.58203125 C77.6357422,8.64844283 77.3793971,9.50862303 76.8666992,10.1625977 C76.3540013,10.8165723 75.6487675,11.1435547 74.7509766,11.1435547 C74.2679012,11.1435547 73.8486346,11.0512705 73.4931641,10.8666992 C73.1376935,10.682128 72.8414725,10.4098325 72.6044922,10.0498047 L72.4814453,11 L71.3193359,11 L71.3193359,1.39550781 L70.2050781,1.20410156 L70.2050781,0.3359375 L72.6660156,0.3359375 L72.6660156,4.47851562 C72.8984387,4.15038898 73.1866845,3.89974045 73.5307617,3.7265625 C73.874839,3.55338455 74.2770159,3.46679688 74.7373047,3.46679688 C75.6487676,3.46679688 76.359698,3.83137656 76.8701172,4.56054688 C77.3805364,5.28971719 77.6357422,6.24901749 77.6357422,7.43847656 L77.6357422,7.58203125 Z M76.2822266,7.43847656 C76.2822266,6.58625876 76.1272802,5.89355735 75.8173828,5.36035156 C75.5074854,4.82714577 75.0335318,4.56054688 74.3955078,4.56054688 C73.9807922,4.56054688 73.6310236,4.66080629 73.3461914,4.86132812 C73.0613593,5.06184996 72.8346363,5.33072748 72.6660156,5.66796875 L72.6660156,8.93554688 C72.8346363,9.27734546 73.0636379,9.5485016 73.3530273,9.74902344 C73.6424168,9.94954527 73.9944641,10.0498047 74.4091797,10.0498047 C75.0426464,10.0498047 75.5131821,9.82422101 75.8208008,9.37304688 C76.1284195,8.92187274 76.2822266,8.32487351 76.2822266,7.58203125 L76.2822266,7.43847656 Z" id="Roboto-Slab" fill="#000000" sketch:type="MSShapeGroup"></path>
</svg>