<svg width="44px" height="12px" viewBox="0 0 44 12" version="1.1" xmlns="http://www.w3.org/2000/svg" xmlns:xlink="http://www.w3.org/1999/xlink" xmlns:sketch="http://www.bohemiancoding.com/sketch/ns">
  <path d="M1.50878906,6.68652344 L1.50878906,11 L0.162109375,11 L0.162109375,1.05371094 L3.56640625,1.05371094 C4.6556044,1.05371094 5.48730182,1.29524498 6.06152344,1.77832031 C6.63574506,2.26139564 6.92285156,2.96321154 6.92285156,3.88378906 C6.92285156,4.39420828 6.78955211,4.83853978 6.52294922,5.21679688 C6.25634632,5.59505397 5.86784109,5.89583222 5.35742188,6.11914062 C5.90429961,6.29687589 6.29736208,6.5851217 6.53662109,6.98388672 C6.7758801,7.38265173 6.89550781,7.87597362 6.89550781,8.46386719 L6.89550781,9.40039062 C6.89550781,9.71028801 6.92968716,9.98828002 6.99804688,10.234375 C7.06640659,10.48047 7.18489499,10.6809888 7.35351562,10.8359375 L7.35351562,11 L5.96582031,11 C5.78808505,10.8450513 5.6741539,10.617189 5.62402344,10.3164062 C5.57389298,10.0156235 5.54882812,9.70573076 5.54882812,9.38671875 L5.54882812,8.47753906 C5.54882812,7.93977596 5.39160313,7.50683758 5.07714844,7.17871094 C4.76269374,6.8505843 4.34114848,6.68652344 3.8125,6.68652344 L1.50878906,6.68652344 Z M1.50878906,5.62695312 L3.4296875,5.62695312 C4.19075901,5.62695312 4.73876786,5.48226056 5.07373047,5.19287109 C5.40869308,4.90348163 5.57617188,4.46256807 5.57617188,3.87011719 C5.57617188,3.30956751 5.41325033,2.87548982 5.08740234,2.56787109 C4.76155436,2.26025237 4.25456073,2.10644531 3.56640625,2.10644531 L1.50878906,2.10644531 L1.50878906,5.62695312 Z M8.5703125,7.23339844 C8.5703125,6.13964297 8.8665335,5.23844755 9.45898438,4.52978516 C10.0514353,3.82112276 10.8557892,3.46679688 11.8720703,3.46679688 C12.8974661,3.46679688 13.7075166,3.81998345 14.3022461,4.52636719 C14.8969756,5.23275093 15.1943359,6.13508565 15.1943359,7.23339844 L15.1943359,7.38378906 C15.1943359,8.48665916 14.8981149,9.38899389 14.3056641,10.0908203 C13.7132132,10.7926467 12.9065806,11.1435547 11.8857422,11.1435547 C10.8649037,11.1435547 10.0571319,10.7915074 9.46240234,10.0874023 C8.86767281,9.38329726 8.5703125,8.48210185 8.5703125,7.38378906 L8.5703125,7.23339844 Z M9.91699219,7.38378906 C9.91699219,8.16764715 10.0821924,8.81477609 10.4125977,9.32519531 C10.743003,9.83561453 11.2340462,10.0908203 11.8857422,10.0908203 C12.5283235,10.0908203 13.0159489,9.83561453 13.3486328,9.32519531 C13.6813168,8.81477609 13.8476562,8.16764715 13.8476562,7.38378906 L13.8476562,7.23339844 C13.8476562,6.45865498 13.6801775,5.81380466 13.3452148,5.29882812 C13.0102522,4.78385159 12.519209,4.52636719 11.8720703,4.52636719 C11.229489,4.52636719 10.743003,4.78385159 10.4125977,5.29882812 C10.0821924,5.81380466 9.91699219,6.45865498 9.91699219,7.23339844 L9.91699219,7.38378906 Z M23.1582031,7.58203125 C23.1582031,8.64844283 22.901858,9.50862303 22.3891602,10.1625977 C21.8764623,10.8165723 21.1712284,11.1435547 20.2734375,11.1435547 C19.7812475,11.1435547 19.3540057,11.0467132 18.9916992,10.8530273 C18.6293927,10.6593415 18.3297538,10.3733743 18.0927734,9.99511719 L17.8740234,11 L16.8417969,11 L16.8417969,0.3359375 L18.1884766,0.3359375 L18.1884766,4.47851562 C18.4208996,4.15038898 18.7091454,3.89974045 19.0532227,3.7265625 C19.3972999,3.55338455 19.7994769,3.46679688 20.2597656,3.46679688 C21.1712285,3.46679688 21.8821589,3.83137656 22.3925781,4.56054688 C22.9029973,5.28971719 23.1582031,6.24901749 23.1582031,7.43847656 L23.1582031,7.58203125 Z M21.8115234,7.43847656 C21.8115234,6.59081607 21.6554378,5.89925398 21.3432617,5.36376953 C21.0310857,4.82828508 20.5559928,4.56054688 19.9179688,4.56054688 C19.5032531,4.56054688 19.1534845,4.6619456 18.8686523,4.86474609 C18.5838202,5.06754659 18.3570972,5.33984204 18.1884766,5.68164062 L18.1884766,8.88769531 C18.3616545,9.25228047 18.5883775,9.53710835 18.8686523,9.7421875 C19.1489272,9.94726665 19.5032531,10.0498047 19.9316406,10.0498047 C20.5651073,10.0498047 21.0367823,9.82422101 21.3466797,9.37304688 C21.6565771,8.92187274 21.8115234,8.32487351 21.8115234,7.58203125 L21.8115234,7.43847656 Z M24.484375,7.23339844 C24.484375,6.13964297 24.780596,5.23844755 25.3730469,4.52978516 C25.9654978,3.82112276 26.7698517,3.46679688 27.7861328,3.46679688 C28.8115286,3.46679688 29.6215791,3.81998345 30.2163086,4.52636719 C30.8110381,5.23275093 31.1083984,6.13508565 31.1083984,7.23339844 L31.1083984,7.38378906 C31.1083984,8.48665916 30.8121774,9.38899389 30.2197266,10.0908203 C29.6272757,10.7926467 28.8206431,11.1435547 27.7998047,11.1435547 C26.7789662,11.1435547 25.9711944,10.7915074 25.3764648,10.0874023 C24.7817353,9.38329726 24.484375,8.48210185 24.484375,7.38378906 L24.484375,7.23339844 Z M25.8310547,7.38378906 C25.8310547,8.16764715 25.9962549,8.81477609 26.3266602,9.32519531 C26.6570655,9.83561453 27.1481087,10.0908203 27.7998047,10.0908203 C28.442386,10.0908203 28.9300114,9.83561453 29.2626953,9.32519531 C29.5953793,8.81477609 29.7617187,8.16764715 29.7617187,7.38378906 L29.7617187,7.23339844 C29.7617187,6.45865498 29.59424,5.81380466 29.2592773,5.29882812 C28.9243147,4.78385159 28.4332715,4.52636719 27.7861328,4.52636719 C27.1435515,4.52636719 26.6570655,4.78385159 26.3266602,5.29882812 C25.9962549,5.81380466 25.8310547,6.45865498 25.8310547,7.23339844 L25.8310547,7.38378906 Z M34.6289062,1.81933594 L34.6289062,3.60351562 L36.0302734,3.60351562 L36.0302734,4.6015625 L34.6289062,4.6015625 L34.6289062,9.09277344 C34.6289062,9.43912934 34.7006829,9.682942 34.8442383,9.82421875 C34.9877937,9.9654955 35.1780587,10.0361328 35.4150391,10.0361328 C35.4925134,10.0361328 35.5791011,10.025879 35.6748047,10.0053711 C35.7705083,9.98486318 35.8502601,9.96321626 35.9140625,9.94042969 L36.0986328,10.8632812 C35.9983719,10.9453129 35.8502614,11.0125323 35.6542969,11.0649414 C35.4583324,11.1173505 35.2646494,11.1435547 35.0732422,11.1435547 C34.5263645,11.1435547 34.0911475,10.9783545 33.7675781,10.6479492 C33.4440088,10.3175439 33.2822266,9.79915718 33.2822266,9.09277344 L33.2822266,4.6015625 L32.1064453,4.6015625 L32.1064453,3.60351562 L33.2822266,3.60351562 L33.2822266,1.81933594 L34.6289062,1.81933594 Z M37.1582031,7.23339844 C37.1582031,6.13964297 37.4544241,5.23844755 38.046875,4.52978516 C38.6393259,3.82112276 39.4436798,3.46679688 40.4599609,3.46679688 C41.4853567,3.46679688 42.2954072,3.81998345 42.8901367,4.52636719 C43.4848663,5.23275093 43.7822266,6.13508565 43.7822266,7.23339844 L43.7822266,7.38378906 C43.7822266,8.48665916 43.4860056,9.38899389 42.8935547,10.0908203 C42.3011038,10.7926467 41.4944713,11.1435547 40.4736328,11.1435547 C39.4527944,11.1435547 38.6450225,10.7915074 38.050293,10.0874023 C37.4555634,9.38329726 37.1582031,8.48210185 37.1582031,7.38378906 L37.1582031,7.23339844 Z M38.5048828,7.38378906 C38.5048828,8.16764715 38.670083,8.81477609 39.0004883,9.32519531 C39.3308936,9.83561453 39.8219368,10.0908203 40.4736328,10.0908203 C41.1162142,10.0908203 41.6038395,9.83561453 41.9365234,9.32519531 C42.2692074,8.81477609 42.4355469,8.16764715 42.4355469,7.38378906 L42.4355469,7.23339844 C42.4355469,6.45865498 42.2680681,5.81380466 41.9331055,5.29882812 C41.5981429,4.78385159 41.1070996,4.52636719 40.4599609,4.52636719 C39.8173796,4.52636719 39.3308936,4.78385159 39.0004883,5.29882812 C38.670083,5.81380466 38.5048828,6.45865498 38.5048828,7.23339844 L38.5048828,7.38378906 Z" id="Roboto" fill="#000000" sketch:type="MSShapeGroup"></path>
</svg>
