<svg width="46px" height="12px" viewBox="0 0 46 12" version="1.1" xmlns="http://www.w3.org/2000/svg" xmlns:xlink="http://www.w3.org/1999/xlink" xmlns:sketch="http://www.bohemiancoding.com/sketch/ns">
  <path d="M3.816,11.21 C3.18133016,11.21 2.630669,11.112001 2.164,10.916 C1.697331,10.719999 1.31466816,10.4516684 1.016,10.111 C0.71733184,9.77033163 0.49566739,9.366669 0.351,8.9 C0.20633261,8.433331 0.134,7.92933604 0.134,7.388 L0.134,1.298 L1.492,1.298 L1.492,7.234 C1.492,8.20467152 1.70666452,8.90933114 2.136,9.348 C2.56533548,9.78666886 3.12532988,10.006 3.816,10.006 C4.16133506,10.006 4.47633191,9.95233387 4.761,9.845 C5.04566809,9.73766613 5.29066564,9.57200112 5.496,9.348 C5.70133436,9.12399888 5.85999944,8.83700175 5.972,8.487 C6.08400056,8.13699825 6.14,7.71933576 6.14,7.234 L6.14,1.298 L7.498,1.298 L7.498,7.388 C7.498,7.92933604 7.42566739,8.433331 7.281,8.9 C7.13633261,9.366669 6.91233485,9.77033163 6.609,10.111 C6.30566515,10.4516684 5.92300231,10.719999 5.461,10.916 C4.99899769,11.112001 4.45066984,11.21 3.816,11.21 L3.816,11.21 Z M11.054,4.042 C11.2126675,3.93933282 11.4529984,3.83200056 11.775,3.72 C12.0970016,3.60799944 12.4679979,3.552 12.888,3.552 C13.4106693,3.552 13.874998,3.6453324 14.281,3.832 C14.687002,4.0186676 15.0299986,4.27999832 15.31,4.616 C15.5900014,4.95200168 15.8023326,5.353331 15.947,5.82 C16.0916674,6.286669 16.164,6.7999972 16.164,7.36 C16.164,7.94800294 16.0776675,8.47766431 15.905,8.949 C15.7323325,9.42033569 15.4873349,9.8193317 15.17,10.146 C14.8526651,10.4726683 14.4700022,10.7246658 14.022,10.902 C13.5739978,11.0793342 13.0700028,11.168 12.51,11.168 C11.9033303,11.168 11.366669,11.1260004 10.9,11.042 C10.433331,10.9579996 10.0506682,10.8740004 9.752,10.79 L9.752,0.36 L11.054,0.136 L11.054,4.042 Z M11.054,9.866 C11.1846673,9.90333352 11.3689988,9.93833317 11.607,9.971 C11.8450012,10.0036668 12.1413316,10.02 12.496,10.02 C13.1960035,10.02 13.7559979,9.78900231 14.176,9.327 C14.5960021,8.86499769 14.806,8.20933758 14.806,7.36 C14.806,6.9866648 14.768667,6.6366683 14.694,6.31 C14.619333,5.9833317 14.4980008,5.70100119 14.33,5.463 C14.1619992,5.22499881 13.9450013,5.03833401 13.679,4.903 C13.4129987,4.76766599 13.0933352,4.7 12.72,4.7 C12.3653316,4.7 12.0386682,4.76066606 11.74,4.882 C11.4413318,5.00333394 11.2126675,5.12933268 11.054,5.26 L11.054,9.866 Z M23.794,10.79 C23.4953318,10.864667 23.1010024,10.9439996 22.611,11.028 C22.1209976,11.1120004 21.5540032,11.154 20.91,11.154 C20.3499972,11.154 19.8786686,11.0723341 19.496,10.909 C19.1133314,10.7456659 18.8053345,10.5146682 18.572,10.216 C18.3386655,9.91733184 18.1706672,9.56500203 18.068,9.159 C17.9653328,8.75299797 17.914,8.30266914 17.914,7.808 L17.914,3.72 L19.216,3.72 L19.216,7.528 C19.216,8.4146711 19.3559986,9.04933142 19.636,9.432 C19.9160014,9.81466858 20.38733,10.006 21.05,10.006 C21.1900007,10.006 21.3346659,10.0013334 21.484,9.992 C21.6333341,9.98266662 21.7733327,9.97100007 21.904,9.957 C22.0346673,9.94299993 22.1536661,9.92900007 22.261,9.915 C22.3683339,9.90099993 22.4453331,9.88466676 22.492,9.866 L22.492,3.72 L23.794,3.72 L23.794,10.79 Z M26.034,3.93 C26.3326682,3.85533296 26.7293309,3.77600042 27.224,3.692 C27.7186691,3.60799958 28.2879968,3.566 28.932,3.566 C29.5106696,3.566 29.9913314,3.64766585 30.374,3.811 C30.7566686,3.97433415 31.0623322,4.20299853 31.291,4.497 C31.5196678,4.79100147 31.6806662,5.14333128 31.774,5.554 C31.8673338,5.96466872 31.914,6.41733086 31.914,6.912 L31.914,11 L30.612,11 L30.612,7.192 C30.612,6.74399776 30.581667,6.36133492 30.521,6.044 C30.460333,5.72666508 30.3600007,5.47000098 30.22,5.274 C30.0799993,5.07799902 29.8933345,4.93566711 29.66,4.847 C29.4266655,4.75833289 29.1373351,4.714 28.792,4.714 C28.6519993,4.714 28.5073341,4.71866662 28.358,4.728 C28.2086659,4.73733338 28.066334,4.74899993 27.931,4.763 C27.795666,4.77700007 27.6743339,4.79333324 27.567,4.812 C27.4596661,4.83066676 27.3826669,4.84466662 27.336,4.854 L27.336,11 L26.034,11 L26.034,3.93 Z M35.288,3.72 L38.046,3.72 L38.046,4.812 L35.288,4.812 L35.288,8.172 C35.288,8.53600182 35.3159997,8.83699881 35.372,9.075 C35.4280003,9.31300119 35.5119994,9.49966599 35.624,9.635 C35.7360006,9.77033401 35.8759992,9.86599972 36.044,9.922 C36.2120008,9.97800028 36.4079989,10.006 36.632,10.006 C37.024002,10.006 37.3389988,9.96166711 37.577,9.873 C37.8150012,9.78433289 37.9806662,9.72133352 38.074,9.684 L38.326,10.762 C38.1953327,10.8273337 37.9666683,10.9089995 37.64,11.007 C37.3133317,11.1050005 36.9400021,11.154 36.52,11.154 C36.0253309,11.154 35.6170016,11.0910006 35.295,10.965 C34.9729984,10.8389994 34.714001,10.6500013 34.518,10.398 C34.321999,10.1459987 34.1843337,9.83566851 34.105,9.467 C34.0256663,9.09833149 33.986,8.67133576 33.986,8.186 L33.986,1.69 L35.288,1.466 L35.288,3.72 Z M45.494,10.79 C45.1953318,10.864667 44.8010024,10.9439996 44.311,11.028 C43.8209975,11.1120004 43.2540032,11.154 42.61,11.154 C42.0499972,11.154 41.5786686,11.0723341 41.196,10.909 C40.8133314,10.7456659 40.5053345,10.5146682 40.272,10.216 C40.0386655,9.91733184 39.8706672,9.56500203 39.768,9.159 C39.6653328,8.75299797 39.614,8.30266914 39.614,7.808 L39.614,3.72 L40.916,3.72 L40.916,7.528 C40.916,8.4146711 41.0559986,9.04933142 41.336,9.432 C41.6160014,9.81466858 42.08733,10.006 42.75,10.006 C42.8900007,10.006 43.0346659,10.0013334 43.184,9.992 C43.3333341,9.98266662 43.4733327,9.97100007 43.604,9.957 C43.7346673,9.94299993 43.8536661,9.92900007 43.961,9.915 C44.0683339,9.90099993 44.1453331,9.88466676 44.192,9.866 L44.192,3.72 L45.494,3.72 L45.494,10.79 Z" id="Ubuntu" fill="#000000" sketch:type="MSShapeGroup"></path>
</svg>
